<svg width="260" height="191" viewBox="0 0 260 191" fill="none" xmlns="http://www.w3.org/2000/svg">
<path d="M93.041 0L167 127.721H135L93.041 55.5L15.5 190.221L0 163.221L93.041 0Z" fill="#02ACD8"/>
<path d="M179.541 0.720703L253.5 128.441H221.5L179.541 56.2207L156.5 94.2207L141 66.7207L179.541 0.720703Z" fill="#02ACD8"/>
<path d="M66.6992 163.154H60.1777L60.1426 159.938H65.8379C66.7988 159.938 67.6133 159.797 68.2812 159.516C68.9609 159.223 69.4766 158.807 69.8281 158.268C70.1797 157.717 70.3555 157.055 70.3555 156.281C70.3555 155.426 70.1914 154.729 69.8633 154.189C69.5352 153.65 69.0312 153.258 68.3516 153.012C67.6836 152.766 66.8281 152.643 65.7852 152.643H61.5137V174.721H57.1016V149.127H65.7852C67.1914 149.127 68.4453 149.262 69.5469 149.531C70.6602 149.801 71.6035 150.223 72.377 150.797C73.1621 151.359 73.7539 152.074 74.1523 152.941C74.5625 153.809 74.7676 154.84 74.7676 156.035C74.7676 157.09 74.5156 158.057 74.0117 158.936C73.5078 159.803 72.7637 160.512 71.7793 161.062C70.7949 161.613 69.5703 161.941 68.1055 162.047L66.6992 163.154ZM66.5059 174.721H58.7891L60.7754 171.223H66.5059C67.502 171.223 68.334 171.059 69.002 170.73C69.6699 170.391 70.168 169.928 70.4961 169.342C70.8359 168.744 71.0059 168.047 71.0059 167.25C71.0059 166.418 70.8594 165.697 70.5664 165.088C70.2734 164.467 69.8105 163.992 69.1777 163.664C68.5449 163.324 67.7188 163.154 66.6992 163.154H61.7422L61.7773 159.938H68.2285L69.2305 161.15C70.6367 161.197 71.791 161.508 72.6934 162.082C73.6074 162.656 74.2871 163.4 74.7324 164.314C75.1777 165.229 75.4004 166.213 75.4004 167.268C75.4004 168.896 75.043 170.262 74.3281 171.363C73.625 172.465 72.6113 173.303 71.2871 173.877C69.9629 174.439 68.3691 174.721 66.5059 174.721ZM96.5996 171.223V174.721H83.0117V171.223H96.5996ZM84.2598 149.127V174.721H79.8477V149.127H84.2598ZM94.8242 159.814V163.26H83.0117V159.814H94.8242ZM96.5117 149.127V152.643H83.0117V149.127H96.5117ZM100.203 149.127H109.256C111.201 149.127 112.859 149.42 114.23 150.006C115.602 150.592 116.65 151.459 117.377 152.607C118.115 153.744 118.484 155.15 118.484 156.826C118.484 158.104 118.25 159.229 117.781 160.201C117.312 161.174 116.65 161.994 115.795 162.662C114.939 163.318 113.92 163.828 112.736 164.191L111.4 164.842H103.262L103.227 161.344H109.326C110.381 161.344 111.26 161.156 111.963 160.781C112.666 160.406 113.193 159.896 113.545 159.252C113.908 158.596 114.09 157.857 114.09 157.037C114.09 156.146 113.914 155.373 113.562 154.717C113.223 154.049 112.695 153.539 111.98 153.188C111.266 152.824 110.357 152.643 109.256 152.643H104.615V174.721H100.203V149.127ZM114.811 174.721L108.799 163.225L113.422 163.207L119.521 174.492V174.721H114.811ZM142.531 161.643V171.416C142.168 171.896 141.6 172.424 140.826 172.998C140.064 173.561 139.051 174.047 137.785 174.457C136.52 174.867 134.943 175.072 133.057 175.072C131.451 175.072 129.98 174.803 128.645 174.264C127.309 173.713 126.154 172.91 125.182 171.855C124.221 170.801 123.477 169.518 122.949 168.006C122.422 166.482 122.158 164.748 122.158 162.803V161.027C122.158 159.094 122.398 157.371 122.879 155.859C123.371 154.336 124.074 153.047 124.988 151.992C125.902 150.938 127.004 150.141 128.293 149.602C129.594 149.051 131.064 148.775 132.705 148.775C134.803 148.775 136.537 149.127 137.908 149.83C139.291 150.521 140.357 151.482 141.107 152.713C141.857 153.943 142.332 155.35 142.531 156.932H138.207C138.066 156.041 137.791 155.244 137.381 154.541C136.982 153.838 136.408 153.287 135.658 152.889C134.92 152.479 133.959 152.273 132.775 152.273C131.756 152.273 130.859 152.467 130.086 152.854C129.312 153.24 128.668 153.809 128.152 154.559C127.648 155.309 127.268 156.223 127.01 157.301C126.752 158.379 126.623 159.609 126.623 160.992V162.803C126.623 164.209 126.77 165.457 127.062 166.547C127.367 167.637 127.801 168.557 128.363 169.307C128.938 170.057 129.635 170.625 130.455 171.012C131.275 171.387 132.201 171.574 133.232 171.574C134.24 171.574 135.066 171.492 135.711 171.328C136.355 171.152 136.865 170.947 137.24 170.713C137.627 170.467 137.926 170.232 138.137 170.01V164.93H132.811V161.643H142.531ZM157.947 149.127V174.721H153.57V149.127H157.947ZM165.98 149.127V152.643H145.607V149.127H165.98ZM177.635 152.537L169.988 174.721H165.365L174.998 149.127H177.951L177.635 152.537ZM184.033 174.721L176.369 152.537L176.035 149.127H179.006L188.674 174.721H184.033ZM183.664 165.229V168.727H169.742V165.229H183.664ZM210.91 161.643V171.416C210.547 171.896 209.979 172.424 209.205 172.998C208.443 173.561 207.43 174.047 206.164 174.457C204.898 174.867 203.322 175.072 201.436 175.072C199.83 175.072 198.359 174.803 197.023 174.264C195.688 173.713 194.533 172.91 193.561 171.855C192.6 170.801 191.855 169.518 191.328 168.006C190.801 166.482 190.537 164.748 190.537 162.803V161.027C190.537 159.094 190.777 157.371 191.258 155.859C191.75 154.336 192.453 153.047 193.367 151.992C194.281 150.938 195.383 150.141 196.672 149.602C197.973 149.051 199.443 148.775 201.084 148.775C203.182 148.775 204.916 149.127 206.287 149.83C207.67 150.521 208.736 151.482 209.486 152.713C210.236 153.943 210.711 155.35 210.91 156.932H206.586C206.445 156.041 206.17 155.244 205.76 154.541C205.361 153.838 204.787 153.287 204.037 152.889C203.299 152.479 202.338 152.273 201.154 152.273C200.135 152.273 199.238 152.467 198.465 152.854C197.691 153.24 197.047 153.809 196.531 154.559C196.027 155.309 195.646 156.223 195.389 157.301C195.131 158.379 195.002 159.609 195.002 160.992V162.803C195.002 164.209 195.148 165.457 195.441 166.547C195.746 167.637 196.18 168.557 196.742 169.307C197.316 170.057 198.014 170.625 198.834 171.012C199.654 171.387 200.58 171.574 201.611 171.574C202.619 171.574 203.445 171.492 204.09 171.328C204.734 171.152 205.244 170.947 205.619 170.713C206.006 170.467 206.305 170.232 206.516 170.01V164.93H201.189V161.643H210.91ZM232.549 171.223V174.721H218.961V171.223H232.549ZM220.209 149.127V174.721H215.797V149.127H220.209ZM230.773 159.814V163.26H218.961V159.814H230.773ZM232.461 149.127V152.643H218.961V149.127H232.461ZM256.455 149.127V174.721H252.043L240.564 156.387V174.721H236.152V149.127H240.564L252.078 167.496V149.127H256.455Z" fill="#555559"/>
</svg>
