<?xml version="1.0" encoding="UTF-8"?>
<!DOCTYPE svg PUBLIC "-//W3C//DTD SVG 1.1//EN" "http://www.w3.org/Graphics/SVG/1.1/DTD/svg11.dtd">
<svg xmlns="http://www.w3.org/2000/svg" version="1.1" width="500px" height="500px" style="shape-rendering:geometricPrecision; text-rendering:geometricPrecision; image-rendering:optimizeQuality; fill-rule:evenodd; clip-rule:evenodd" xmlns:xlink="http://www.w3.org/1999/xlink">
<g><path style="opacity:1" fill="#3a64a2" d="M 232.5,-0.5 C 243.5,-0.5 254.5,-0.5 265.5,-0.5C 332.499,5.16775 388.832,32.5011 434.5,81.5C 434.738,83.4044 435.738,84.7377 437.5,85.5C 439.167,86.5 440.5,87.8333 441.5,89.5C 441.427,91.0269 442.094,92.0269 443.5,92.5C 444.5,92.8333 445.167,93.5 445.5,94.5C 445.427,96.0269 446.094,97.0269 447.5,97.5C 449.543,98.5794 450.876,100.246 451.5,102.5C 451.427,104.027 452.094,105.027 453.5,105.5C 453.427,107.027 454.094,108.027 455.5,108.5C 455.427,110.027 456.094,111.027 457.5,111.5C 457.427,113.027 458.094,114.027 459.5,114.5C 460.89,115.899 461.89,117.566 462.5,119.5C 462.427,121.027 463.094,122.027 464.5,122.5C 465.674,123.514 466.34,124.847 466.5,126.5C 466.427,128.027 467.094,129.027 468.5,129.5C 480.77,150.636 489.103,173.302 493.5,197.5C 493.42,200.781 494.087,203.781 495.5,206.5C 497.17,215.216 498.503,223.883 499.5,232.5C 499.5,243.5 499.5,254.5 499.5,265.5C 490.46,358.006 445.46,426.839 364.5,472C 334.082,487.101 302.082,496.267 268.5,499.5C 255.833,499.5 243.167,499.5 230.5,499.5C 222.208,498.552 213.875,497.218 205.5,495.5C 202.781,494.087 199.781,493.42 196.5,493.5C 167.236,487.753 140.236,476.753 115.5,460.5C 115.027,459.094 114.027,458.427 112.5,458.5C 112.027,457.094 111.027,456.427 109.5,456.5C 109.027,455.094 108.027,454.427 106.5,454.5C 101.929,452.262 97.9289,449.262 94.5,445.5C 93.7377,443.738 92.4044,442.738 90.5,442.5C 89.5,442.167 88.8333,441.5 88.5,440.5C 87.7377,438.738 86.4044,437.738 84.5,437.5C 82.1667,435.833 80.1667,433.833 78.5,431.5C 75.7689,427.766 72.4356,424.766 68.5,422.5C 28.4299,379.348 5.42994,328.348 -0.5,269.5C -0.5,256.5 -0.5,243.5 -0.5,230.5C 2.92943,193.114 13.9294,158.114 32.5,125.5C 33.9063,125.027 34.573,124.027 34.5,122.5C 34.3284,121.508 34.6618,120.842 35.5,120.5C 36.9063,120.027 37.573,119.027 37.5,117.5C 38.1103,115.566 39.1103,113.899 40.5,112.5C 41.9063,112.027 42.573,111.027 42.5,109.5C 43.9063,109.027 44.573,108.027 44.5,106.5C 45.0256,104.77 46.0256,103.436 47.5,102.5C 48.9063,102.027 49.573,101.027 49.5,99.5C 49.5,98.8333 49.8333,98.5 50.5,98.5C 52.2624,97.7377 53.2624,96.4044 53.5,94.5C 56.4864,90.183 59.8197,86.183 63.5,82.5C 72.1123,75.5561 80.1123,67.8894 87.5,59.5C 114.487,35.8327 145.487,19.1661 180.5,9.5C 183.228,9.82943 185.562,9.16276 187.5,7.5C 189.042,6.69929 190.708,6.36596 192.5,6.5C 195.553,6.88934 198.22,6.22267 200.5,4.5C 211.191,2.33339 221.858,0.666721 232.5,-0.5 Z"/></g>
<g><path style="opacity:1" fill="#fbfcfd" d="M 228.5,4.5 C 325.384,0.194787 401.218,37.5281 456,116.5C 500.075,189.143 506.742,265.143 476,344.5C 442.958,418.871 387.125,466.704 308.5,488C 210.373,508.401 127.873,481.567 61,407.5C 6.66968,338.137 -8.66365,260.804 15,175.5C 43.0882,94.4117 97.9215,40.5784 179.5,14C 187.58,12.3134 195.58,10.3134 203.5,8C 211.995,6.95617 220.328,5.7895 228.5,4.5 Z"/></g>
<g><path style="opacity:1" fill="#829bc4" d="M 200.5,4.5 C 198.22,6.22267 195.553,6.88934 192.5,6.5C 194.961,5.46899 197.627,4.80233 200.5,4.5 Z"/></g>
<g><path style="opacity:1" fill="#92a8cc" d="M 187.5,7.5 C 185.562,9.16276 183.228,9.82943 180.5,9.5C 182.599,8.38815 184.933,7.72148 187.5,7.5 Z"/></g>
<g><path style="opacity:1" fill="#235c9d" d="M 254.5,11.5 C 256.167,11.5 257.833,11.5 259.5,11.5C 259.5,13.1667 259.5,14.8333 259.5,16.5C 257.833,16.5 256.167,16.5 254.5,16.5C 254.5,14.8333 254.5,13.1667 254.5,11.5 Z"/></g>
<g><path style="opacity:1" fill="#7ba1c6" d="M 266.5,12.5 C 265.167,12.5 263.833,12.5 262.5,12.5C 262.5,13.8333 262.5,15.1667 262.5,16.5C 261.549,15.0813 261.216,13.4147 261.5,11.5C 263.415,11.2155 265.081,11.5489 266.5,12.5 Z"/></g>
<g><path style="opacity:1" fill="#004b93" d="M 266.5,12.5 C 266.5,13.8333 266.5,15.1667 266.5,16.5C 265.167,16.5 263.833,16.5 262.5,16.5C 262.5,15.1667 262.5,13.8333 262.5,12.5C 263.833,12.5 265.167,12.5 266.5,12.5 Z"/></g>
<g><path style="opacity:1" fill="#20579a" d="M 239.5,18.5 C 240.833,18.5 242.167,18.5 243.5,18.5C 243.762,19.9778 243.429,21.3112 242.5,22.5C 239.916,23.3928 237.249,23.7261 234.5,23.5C 234.5,25.5 234.5,27.5 234.5,29.5C 237.5,29.5 240.5,29.5 243.5,29.5C 243.5,31.1667 243.5,32.8333 243.5,34.5C 240.833,34.5 238.167,34.5 235.5,34.5C 235.5,38.8333 235.5,43.1667 235.5,47.5C 233.5,47.5 231.5,47.5 229.5,47.5C 229.5,40.8333 229.5,34.1667 229.5,27.5C 229.5,24.8333 229.5,22.1667 229.5,19.5C 233.042,19.8128 236.375,19.4794 239.5,18.5 Z"/></g>
<g><path style="opacity:1" fill="#1a5598" d="M 251.5,18.5 C 253.167,18.5 254.833,18.5 256.5,18.5C 256.334,26.5069 256.5,34.5069 257,42.5C 259.267,43.9348 261.267,43.6015 263,41.5C 263.5,34.1742 263.666,26.8409 263.5,19.5C 265.5,19.5 267.5,19.5 269.5,19.5C 269.553,27.8647 269.053,36.198 268,44.5C 263.308,49.2157 258.141,49.7157 252.5,46C 251.874,45.2496 251.374,44.4162 251,43.5C 250.781,35.1677 250.948,26.8344 251.5,18.5 Z"/></g>
<g><path style="opacity:1" fill="#135297" d="M 206.5,21.5 C 210.106,21.2108 213.606,21.5442 217,22.5C 220.973,26.8646 220.139,29.5312 214.5,30.5C 214.2,26.0236 212.033,24.6903 208,26.5C 207.404,31.8798 207.738,37.2131 209,42.5C 210.508,46.674 212.841,47.3407 216,44.5C 216.495,42.5273 216.662,40.5273 216.5,38.5C 213.05,39.2436 211.384,37.9103 211.5,34.5C 214.627,34.1244 217.627,34.1244 220.5,34.5C 221.816,39.0658 222.483,43.7325 222.5,48.5C 221.07,48.5792 219.736,48.2458 218.5,47.5C 217.09,49.9546 214.923,50.9546 212,50.5C 209.648,50.6951 207.648,50.0284 206,48.5C 202.377,40.7249 201.377,32.7249 203,24.5C 204.145,23.3636 205.312,22.3636 206.5,21.5 Z"/></g>
<g><path style="opacity:1" fill="#195498" d="M 279.5,20.5 C 281.117,21.038 282.784,21.3713 284.5,21.5C 284.105,25.185 283.938,28.8517 284,32.5C 286.041,33.4231 288.208,33.7564 290.5,33.5C 290.89,30.1606 291.39,26.8273 292,23.5C 294.827,22.0014 296.66,22.8347 297.5,26C 295.712,34.4391 294.378,42.9391 293.5,51.5C 291.801,51.6602 290.134,51.4935 288.5,51C 287.978,50.4387 287.645,49.772 287.5,49C 288.438,45.2079 289.104,41.3746 289.5,37.5C 287.076,37.1924 284.743,37.5258 282.5,38.5C 281.746,41.777 281.246,45.1103 281,48.5C 279.333,49.8333 277.667,49.8333 276,48.5C 276.833,39.1665 278,29.8332 279.5,20.5 Z"/></g>
<g><path style="opacity:1" fill="#6d97c0" d="M 239.5,18.5 C 236.375,19.4794 233.042,19.8128 229.5,19.5C 229.5,22.1667 229.5,24.8333 229.5,27.5C 228.523,24.7131 228.19,21.7131 228.5,18.5C 232.167,18.5 235.833,18.5 239.5,18.5 Z"/></g>
<g><path style="opacity:1" fill="#175398" d="M 306.5,26.5 C 311.226,27.3481 315.892,28.5148 320.5,30C 324.594,35.0577 323.927,39.5577 318.5,43.5C 318.916,48.4177 318.916,53.251 318.5,58C 316.203,58.0178 313.869,57.8511 311.5,57.5C 312.965,53.6109 313.465,49.6109 313,45.5C 311.556,43.8446 309.722,43.178 307.5,43.5C 306.776,46.8426 305.943,50.176 305,53.5C 302.726,54.8558 300.893,54.3558 299.5,52C 302.403,43.6454 304.737,35.1454 306.5,26.5 Z"/></g>
<g><path style="opacity:1" fill="#155397" d="M 182.5,27.5 C 192.052,27.1969 195.052,31.3636 191.5,40C 192.766,40.3095 193.933,40.8095 195,41.5C 196.309,45.0991 197.809,48.5991 199.5,52C 197.842,53.6625 195.842,54.4959 193.5,54.5C 192.801,51.4271 191.801,48.4271 190.5,45.5C 188.167,44.1667 185.833,44.1667 183.5,45.5C 184.731,48.5905 185.731,51.7572 186.5,55C 184.746,57.8274 182.912,57.9941 181,55.5C 178.599,47.4641 176.099,39.4641 173.5,31.5C 176.504,30.0109 179.504,28.6776 182.5,27.5 Z"/></g>
<g><path style="opacity:1" fill="#f3f6f9" d="M 181.5,32.5 C 187.158,31.6794 188.825,33.846 186.5,39C 184.975,40.0086 183.308,40.5086 181.5,40.5C 180.768,37.7342 180.768,35.0675 181.5,32.5 Z"/></g>
<g><path style="opacity:1" fill="#eaf0f6" d="M 310.5,32.5 C 315.954,31.5072 317.954,33.5072 316.5,38.5C 314.257,39.4742 311.924,39.8076 309.5,39.5C 309.993,37.1944 310.326,34.861 310.5,32.5 Z"/></g>
<g><path style="opacity:1" fill="#145297" d="M 163.5,34.5 C 166.389,34.999 167.056,36.499 165.5,39C 163.051,39.7246 160.717,40.7246 158.5,42C 160.367,48.3448 163.867,49.1782 169,44.5C 170.009,46.0249 170.509,47.6916 170.5,49.5C 162.55,50.5024 161.383,53.8358 167,59.5C 169.46,58.4021 171.96,57.4021 174.5,56.5C 175.415,57.3279 176.081,58.3279 176.5,59.5C 172.497,61.7821 168.331,63.7821 164,65.5C 162.347,65.1802 161.347,64.1802 161,62.5C 158.028,55.3894 155.195,48.2227 152.5,41C 152.645,40.228 152.978,39.5613 153.5,39C 157.042,37.7245 160.375,36.2245 163.5,34.5 Z"/></g>
<g><path style="opacity:1" fill="#135297" d="M 333.5,34.5 C 338.214,36.5711 342.881,38.7377 347.5,41C 346.929,42.2051 346.262,43.3717 345.5,44.5C 342.96,43.5979 340.46,42.5979 338,41.5C 336.351,42.7861 335.185,44.4527 334.5,46.5C 337.005,48.2533 339.671,49.7533 342.5,51C 341.929,52.2051 341.262,53.3717 340.5,54.5C 337.826,53.3095 335.16,52.4762 332.5,52C 331.601,54.1917 330.601,56.3584 329.5,58.5C 332.246,60.4731 335.246,61.9731 338.5,63C 337.663,64.0113 337.33,65.1779 337.5,66.5C 332.118,65.555 327.452,63.3884 323.5,60C 326.742,51.4367 330.075,42.9367 333.5,34.5 Z"/></g>
<g><path style="opacity:1" fill="#145297" d="M 355.5,44.5 C 360.401,46.8695 364.901,49.8695 369,53.5C 369.836,57.3541 368.669,60.5208 365.5,63C 364.552,63.4828 363.552,63.6495 362.5,63.5C 362.182,68.8169 360.682,73.8169 358,78.5C 356.197,77.6866 354.697,76.5199 353.5,75C 354.833,72 356.167,69 357.5,66C 356.396,64.1796 354.896,62.6796 353,61.5C 351.149,65.2134 348.816,68.5468 346,71.5C 344.274,71.0541 342.774,70.2208 341.5,69C 346.558,61.0502 351.225,52.8835 355.5,44.5 Z"/></g>
<g><path style="opacity:1" fill="#135297" d="M 137.5,46.5 C 144.7,46.293 147.7,49.6263 146.5,56.5C 152.619,58.7369 155.119,63.0703 154,69.5C 150.837,72.6696 147.171,75.0029 143,76.5C 137.873,69.0869 133.373,61.2536 129.5,53C 131.957,50.6011 134.623,48.4344 137.5,46.5 Z"/></g>
<g><path style="opacity:1" fill="#ebf0f6" d="M 137.5,51.5 C 141.518,52.0385 142.851,54.2052 141.5,58C 138.452,58.6345 136.785,57.3012 136.5,54C 136.743,53.0979 137.077,52.2646 137.5,51.5 Z"/></g>
<g><path style="opacity:1" fill="#eff4f8" d="M 357.5,51.5 C 362.805,52.2414 364.139,54.7414 361.5,59C 358.962,59.8672 356.962,59.2005 355.5,57C 356.32,55.1997 356.986,53.3664 357.5,51.5 Z"/></g>
<g><path style="opacity:1" fill="#1a5599" d="M 235.5,59.5 C 318.731,57.8427 380.231,93.176 420,165.5C 449.858,232.092 445.191,296.092 406,357.5C 362.685,415.748 304.519,442.915 231.5,439C 150.384,427.541 95.8845,383.374 68,306.5C 49.2138,239.091 61.8804,178.424 106,124.5C 140.786,86.1901 183.953,64.5235 235.5,59.5 Z"/></g>
<g><path style="opacity:1" fill="#edf2f7" d="M 143.5,61.5 C 147.976,61.8222 149.476,64.1556 148,68.5C 147.311,69.3567 146.478,70.0233 145.5,70.5C 143.914,68.3295 142.58,65.9962 141.5,63.5C 142.243,62.8182 142.909,62.1515 143.5,61.5 Z"/></g>
<g><path style="opacity:1" fill="#fbfcfd" d="M 235.5,63.5 C 321.764,62.3502 383.597,100.35 421,177.5C 446.391,245.481 437.391,308.481 394,366.5C 347.483,419.79 288.983,441.957 218.5,433C 150.584,419.079 103.084,380.246 76,316.5C 51.9543,246.712 63.2876,183.379 110,126.5C 144.03,89.9016 185.863,68.9016 235.5,63.5 Z"/></g>
<g><path style="opacity:1" fill="#577ab0" d="M 87.5,59.5 C 80.1123,67.8894 72.1123,75.5561 63.5,82.5C 70.8877,74.1106 78.8877,66.4439 87.5,59.5 Z"/></g>
<g><path style="opacity:1" fill="#0c4f95" d="M 235.5,79.5 C 236.75,79.5774 237.583,80.244 238,81.5C 238.497,83.8098 238.663,86.1432 238.5,88.5C 237.167,88.5 235.833,88.5 234.5,88.5C 233.198,100.514 231.698,112.514 230,124.5C 226.561,127.153 222.727,127.82 218.5,126.5C 212.833,116.5 207.167,106.5 201.5,96.5C 200.224,95.3554 198.891,95.3554 197.5,96.5C 196.068,93.6727 195.401,90.6727 195.5,87.5C 202.132,86.2836 208.799,85.2836 215.5,84.5C 215.575,87.2062 215.908,89.8728 216.5,92.5C 215.325,92.281 214.325,92.6143 213.5,93.5C 215.746,98.3257 218.246,102.992 221,107.5C 221.965,102.507 222.798,97.5075 223.5,92.5C 221.955,91.5481 220.288,91.2148 218.5,91.5C 218.051,88.7102 218.051,86.0436 218.5,83.5C 224.341,82.4025 230.007,81.0692 235.5,79.5 Z"/></g>
<g><path style="opacity:1" fill="#0e5095" d="M 247.5,80.5 C 258.13,80.237 268.464,81.737 278.5,85C 284.062,91.6201 283.728,97.9534 277.5,104C 283.116,109.086 283.949,114.919 280,121.5C 278.269,123.617 276.102,125.117 273.5,126C 263.812,126.128 254.146,125.628 244.5,124.5C 244.5,121.5 244.5,118.5 244.5,115.5C 246.167,115.5 247.833,115.5 249.5,115.5C 250.387,106.851 251.054,98.1848 251.5,89.5C 250.167,89.5 248.833,89.5 247.5,89.5C 247.5,86.5 247.5,83.5 247.5,80.5 Z"/></g>
<g><path style="opacity:1" fill="#97b0d0" d="M 434.5,81.5 C 436.262,82.2623 437.262,83.5956 437.5,85.5C 435.738,84.7377 434.738,83.4044 434.5,81.5 Z"/></g>
<g><path style="opacity:1" fill="#125297" d="M 390.5,84.5 C 394.976,84.8003 396.31,86.9669 394.5,91C 388.36,91.8076 387.027,89.6409 390.5,84.5 Z"/></g>
<g><path style="opacity:1" fill="#20579a" d="M 104.5,85.5 C 110.158,84.6794 111.825,86.846 109.5,92C 103.741,93.1387 102.074,90.972 104.5,85.5 Z"/></g>
<g><path style="opacity:1" fill="#0b4f95" d="M 294.5,85.5 C 301.291,88.0629 307.958,90.8962 314.5,94C 313.373,95.7533 312.373,97.5866 311.5,99.5C 310.311,100.429 308.978,100.762 307.5,100.5C 307.145,105.849 306.978,111.182 307,116.5C 310.357,112.644 313.524,108.644 316.5,104.5C 315.737,103.281 314.737,102.281 313.5,101.5C 314.601,99.3584 315.601,97.1917 316.5,95C 322.864,96.9031 329.198,99.2365 335.5,102C 334.214,104.022 333.214,106.189 332.5,108.5C 330.979,108.88 329.313,109.046 327.5,109C 319.833,118 312.167,127 304.5,136C 301.415,135.81 298.415,134.976 295.5,133.5C 294.596,124.184 294.596,114.851 295.5,105.5C 295.167,101.833 294.833,98.1667 294.5,94.5C 293.28,94.1131 292.613,93.2798 292.5,92C 293.609,89.9534 294.276,87.7867 294.5,85.5 Z"/></g>
<g><path style="opacity:1" fill="#f5f7fa" d="M 263.5,90.5 C 269.638,89.7798 271.638,92.2798 269.5,98C 267.527,98.4955 265.527,98.6621 263.5,98.5C 263.5,95.8333 263.5,93.1667 263.5,90.5 Z"/></g>
<g><path style="opacity:1" fill="#a7bfd9" d="M 441.5,89.5 C 442.906,89.9731 443.573,90.9731 443.5,92.5C 442.094,92.0269 441.427,91.0269 441.5,89.5 Z"/></g>
<g><path style="opacity:1" fill="#0c4f95" d="M 182.5,92.5 C 184.625,95.0878 185.958,98.0878 186.5,101.5C 185.5,101.5 184.5,101.5 183.5,101.5C 186.341,110.184 190.008,118.517 194.5,126.5C 195.748,125.96 196.915,125.293 198,124.5C 199.303,126.94 200.47,129.44 201.5,132C 195.971,135.933 189.971,139.099 183.5,141.5C 181.428,139.65 180.095,137.317 179.5,134.5C 180.491,133.335 181.491,132.168 182.5,131C 179.081,123.496 175.415,116.163 171.5,109C 169.82,108.966 168.32,108.799 167,108.5C 165.036,106.147 164.536,103.647 165.5,101C 171.49,98.6269 177.156,95.7936 182.5,92.5 Z"/></g>
<g><path style="opacity:1" fill="#95afcf" d="M 53.5,94.5 C 53.2624,96.4044 52.2624,97.7377 50.5,98.5C 50.7376,96.5956 51.7376,95.2623 53.5,94.5 Z"/></g>
<g><path style="opacity:1" fill="#a7bfd9" d="M 445.5,94.5 C 446.906,94.9731 447.573,95.9731 447.5,97.5C 446.094,97.0269 445.427,96.0269 445.5,94.5 Z"/></g>
<g><path style="opacity:1" fill="#185498" d="M 424.5,99.5 C 425.496,99.4142 426.329,99.7476 427,100.5C 429.377,104.088 431.877,107.588 434.5,111C 426.973,116.694 419.306,122.194 411.5,127.5C 408.621,123.576 405.621,119.743 402.5,116C 403.354,114.978 404.354,114.145 405.5,113.5C 408.122,115.411 410.289,117.745 412,120.5C 414.18,119.654 415.68,118.154 416.5,116C 415.182,114.01 413.848,112.01 412.5,110C 413.466,108.322 414.799,107.655 416.5,108C 419.516,115.002 423.183,115.335 427.5,109C 425.637,106.636 423.971,104.136 422.5,101.5C 423.243,100.818 423.909,100.151 424.5,99.5 Z"/></g>
<g><path style="opacity:1" fill="#acc2db" d="M 49.5,99.5 C 49.573,101.027 48.9063,102.027 47.5,102.5C 47.427,100.973 48.0937,99.9731 49.5,99.5 Z"/></g>
<g><path style="opacity:1" fill="#b9cce1" d="M 451.5,102.5 C 452.906,102.973 453.573,103.973 453.5,105.5C 452.094,105.027 451.427,104.027 451.5,102.5 Z"/></g>
<g><path style="opacity:1" fill="#195598" d="M 67.5,105.5 C 75.9032,110.085 83.5699,115.585 90.5,122C 89.3758,124.411 87.8758,126.578 86,128.5C 81.6897,126.174 77.1897,124.674 72.5,124C 76.0158,127.349 79.3492,130.849 82.5,134.5C 81.0787,137.009 79.4121,139.343 77.5,141.5C 69.6214,136.401 61.9548,131.067 54.5,125.5C 55.0256,123.77 56.0256,122.436 57.5,121.5C 62.557,125.446 67.8903,128.613 73.5,131C 68.7865,126.622 64.4532,121.956 60.5,117C 60.6135,115.72 61.2801,114.887 62.5,114.5C 68.033,117.068 73.6996,118.901 79.5,120C 74.672,116.419 69.672,113.085 64.5,110C 65.3862,108.385 66.3862,106.885 67.5,105.5 Z"/></g>
<g><path style="opacity:1" fill="#f6f9fb" d="M 262.5,107.5 C 268.326,107.157 270.826,109.824 270,115.5C 269.617,116.056 269.117,116.389 268.5,116.5C 266.5,116.5 264.5,116.5 262.5,116.5C 262.5,113.5 262.5,110.5 262.5,107.5 Z"/></g>
<g><path style="opacity:1" fill="#9eb6d4" d="M 453.5,105.5 C 454.906,105.973 455.573,106.973 455.5,108.5C 454.094,108.027 453.427,107.027 453.5,105.5 Z"/></g>
<g><path style="opacity:1" fill="#b9cce1" d="M 44.5,106.5 C 44.573,108.027 43.9063,109.027 42.5,109.5C 42.427,107.973 43.0937,106.973 44.5,106.5 Z"/></g>
<g><path style="opacity:1" fill="#9db5d4" d="M 455.5,108.5 C 456.906,108.973 457.573,109.973 457.5,111.5C 456.094,111.027 455.427,110.027 455.5,108.5 Z"/></g>
<g><path style="opacity:1" fill="#bacce1" d="M 42.5,109.5 C 42.573,111.027 41.9063,112.027 40.5,112.5C 40.427,110.973 41.0937,109.973 42.5,109.5 Z"/></g>
<g><path style="opacity:1" fill="#a6bcd7" d="M 457.5,111.5 C 458.906,111.973 459.573,112.973 459.5,114.5C 458.094,114.027 457.427,113.027 457.5,111.5 Z"/></g>
<g><path style="opacity:1" fill="#9fbad6" d="M 262.5,107.5 C 262.5,110.5 262.5,113.5 262.5,116.5C 264.5,116.5 266.5,116.5 268.5,116.5C 266.393,117.468 264.059,117.802 261.5,117.5C 261.187,113.958 261.521,110.625 262.5,107.5 Z"/></g>
<g><path style="opacity:1" fill="#175398" d="M 437.5,116.5 C 439.844,116.979 441.178,118.479 441.5,121C 439.441,125.559 436.774,129.725 433.5,133.5C 433.833,133.833 434.167,134.167 434.5,134.5C 437.997,131.917 441.664,129.584 445.5,127.5C 446.974,128.436 447.974,129.77 448.5,131.5C 441.004,136.749 433.337,141.749 425.5,146.5C 422.856,145.259 422.023,143.259 423,140.5C 426.453,135.379 430.286,130.546 434.5,126C 433.833,125.333 433.167,125.333 432.5,126C 428.258,130.077 423.591,133.577 418.5,136.5C 417.5,135.167 416.5,133.833 415.5,132.5C 422.863,127.157 430.196,121.824 437.5,116.5 Z"/></g>
<g><path style="opacity:1" fill="#b9cbe1" d="M 37.5,117.5 C 37.573,119.027 36.9063,120.027 35.5,120.5C 35.427,118.973 36.0937,117.973 37.5,117.5 Z"/></g>
<g><path style="opacity:1" fill="#b9cbe1" d="M 462.5,119.5 C 463.906,119.973 464.573,120.973 464.5,122.5C 463.094,122.027 462.427,121.027 462.5,119.5 Z"/></g>
<g><path style="opacity:1" fill="#b9cbe1" d="M 34.5,122.5 C 34.573,124.027 33.9063,125.027 32.5,125.5C 32.427,123.973 33.0937,122.973 34.5,122.5 Z"/></g>
<g><path style="opacity:1" fill="#b8cbe0" d="M 466.5,126.5 C 467.906,126.973 468.573,127.973 468.5,129.5C 467.094,129.027 466.427,128.027 466.5,126.5 Z"/></g>
<g><path style="opacity:1" fill="#145297" d="M 49.5,134.5 C 58.2376,135.619 65.7376,139.285 72,145.5C 73.7792,155.721 69.6126,159.888 59.5,158C 54.2557,155.797 49.4223,152.964 45,149.5C 42.4609,143.254 43.9609,138.254 49.5,134.5 Z"/></g>
<g><path style="opacity:1" fill="#034d93" d="M 237.5,135.5 C 285.747,132.876 323.58,151.209 351,190.5C 365.395,217.983 369.395,246.983 363,277.5C 360.335,287.994 356.168,297.827 350.5,307C 349.833,307.667 349.167,307.667 348.5,307C 341.946,300.446 335.446,293.946 329,287.5C 325.507,263.716 321.507,240.049 317,216.5C 314.333,223.167 311.667,229.833 309,236.5C 304.152,218.445 298.985,200.445 293.5,182.5C 288,191.5 282.5,200.5 277,209.5C 274.185,194.456 271.185,179.456 268,164.5C 265.595,169.886 263.095,175.219 260.5,180.5C 255.766,169.801 250.932,159.135 246,148.5C 241.467,159.766 237.134,171.1 233,182.5C 230.497,179.498 228.497,176.165 227,172.5C 226.333,171.167 225.667,171.167 225,172.5C 218.983,188.912 212.816,205.245 206.5,221.5C 201.984,212.469 197.484,203.469 193,194.5C 180.605,229.685 168.605,265.018 157,300.5C 155.859,302.609 154.359,304.442 152.5,306C 151.551,306.617 150.718,306.451 150,305.5C 138.19,283.248 133.857,259.582 137,234.5C 142.364,198.589 160.197,170.756 190.5,151C 205.232,142.577 220.899,137.41 237.5,135.5 Z"/></g>
<g><path style="opacity:1" fill="#175498" d="M 449.5,138.5 C 452.694,138.176 453.694,139.342 452.5,142C 460.061,146.825 460.394,152.159 453.5,158C 449.5,160 445.5,162 441.5,164C 433.857,165.846 429.857,162.846 429.5,155C 429.306,151.212 430.973,148.712 434.5,147.5C 435.333,148.5 436.167,149.5 437,150.5C 435.991,152.05 435.158,153.883 434.5,156C 434.261,158.259 435.261,159.426 437.5,159.5C 443.039,157.147 448.205,154.147 453,150.5C 453.684,149.216 453.517,148.049 452.5,147C 449.697,146.245 447.03,146.578 444.5,148C 447.298,150.066 446.965,151.566 443.5,152.5C 441.11,150.733 439.443,148.4 438.5,145.5C 442.062,142.892 445.729,140.559 449.5,138.5 Z"/></g>
<g><path style="opacity:1" fill="#f4f7fa" d="M 49.5,140.5 C 56.1183,141.392 61.9516,144.058 67,148.5C 67.9337,153.083 66.1004,154.583 61.5,153C 57.9934,150.746 54.3267,148.746 50.5,147C 48.1656,145.158 47.8323,142.991 49.5,140.5 Z"/></g>
<g><path style="opacity:1" fill="#135297" d="M 37.5,158.5 C 47.1577,159.494 56.1577,162.494 64.5,167.5C 63.9744,169.23 62.9744,170.564 61.5,171.5C 55.5405,168.902 49.5405,166.402 43.5,164C 38.6556,163.377 37.3223,165.377 39.5,170C 45.9309,173.198 52.5975,175.698 59.5,177.5C 59.4348,179.696 58.7681,181.696 57.5,183.5C 50.5,180.667 43.5,177.833 36.5,175C 32.4669,169.374 32.8002,163.874 37.5,158.5 Z"/></g>
<g><path style="opacity:1" fill="#125297" d="M 461.5,157.5 C 464.601,161.424 463.767,164.424 459,166.5C 458.493,168.835 459.16,170.835 461,172.5C 463.064,171.409 465.231,171.242 467.5,172C 468.38,173.356 468.714,174.856 468.5,176.5C 459.654,177.71 450.82,179.043 442,180.5C 439.829,179.222 438.662,177.222 438.5,174.5C 438.833,173.833 439.167,173.167 439.5,172.5C 446.899,167.477 454.233,162.477 461.5,157.5 Z"/></g>
<g><path style="opacity:1" fill="#e1eaf2" d="M 452.5,169.5 C 454.121,169.787 455.121,170.787 455.5,172.5C 452.662,174.102 449.662,174.602 446.5,174C 448.747,172.723 450.747,171.223 452.5,169.5 Z"/></g>
<g><path style="opacity:1" fill="#115096" d="M 403.5,177.5 C 405.833,177.5 408.167,177.5 410.5,177.5C 411.827,183.129 413.161,188.796 414.5,194.5C 412.236,197.171 409.236,198.504 405.5,198.5C 405.5,197.167 405.5,195.833 405.5,194.5C 398.846,195.996 392.18,197.496 385.5,199C 394.794,200.493 404.127,201.66 413.5,202.5C 417.168,203.174 418.168,205.174 416.5,208.5C 408.365,213.47 400.365,218.636 392.5,224C 398.962,223.363 405.295,221.863 411.5,219.5C 410.754,218.264 410.421,216.93 410.5,215.5C 413.518,215.296 416.518,214.963 419.5,214.5C 420.552,219.312 421.552,224.145 422.5,229C 422.355,229.772 422.022,230.439 421.5,231C 419.236,231.236 417.069,231.736 415,232.5C 414.077,231.241 413.243,229.908 412.5,228.5C 405.1,230.017 397.767,231.85 390.5,234C 388.893,235.049 388.227,236.549 388.5,238.5C 385.833,239.167 383.167,239.833 380.5,240.5C 379.009,234.224 378.175,227.891 378,221.5C 384.167,217.333 390.333,213.167 396.5,209C 388.574,207.401 380.574,206.568 372.5,206.5C 371.792,200.372 370.458,194.372 368.5,188.5C 368.833,187.833 369.167,187.167 369.5,186.5C 373.152,184.715 376.152,185.382 378.5,188.5C 386.496,186.501 394.496,184.501 402.5,182.5C 401.096,180.453 401.429,178.787 403.5,177.5 Z"/></g>
<g><path style="opacity:1" fill="#175397" d="M 40.5,195.5 C 38.1432,195.337 35.8098,195.503 33.5,196C 34.745,196.791 36.0783,197.291 37.5,197.5C 42.6177,198.031 47.6177,199.031 52.5,200.5C 52.4348,202.696 51.7681,204.696 50.5,206.5C 41.9937,203.581 33.327,201.247 24.5,199.5C 24.2606,197.533 24.5939,195.699 25.5,194C 32.0666,192.35 38.7333,191.35 45.5,191C 39.6301,190.194 33.9635,188.694 28.5,186.5C 27.3338,184.635 27.6671,182.968 29.5,181.5C 38.0767,184.144 46.7434,186.478 55.5,188.5C 55.9746,191.323 54.9746,193.323 52.5,194.5C 48.5474,195.362 44.5474,195.695 40.5,195.5 Z"/></g>
<g><path style="opacity:1" fill="#195498" d="M 445.5,183.5 C 447.28,184.99 447.946,186.99 447.5,189.5C 454.85,187.629 462.184,185.629 469.5,183.5C 472.264,184.628 472.931,186.462 471.5,189C 464.5,190.833 457.5,192.667 450.5,194.5C 449.949,196.413 449.782,198.413 450,200.5C 448.286,201.925 446.953,201.592 446,199.5C 444.981,194.427 443.815,189.427 442.5,184.5C 443.791,184.737 444.791,184.404 445.5,183.5 Z"/></g>
<g><path style="opacity:1" fill="#0f5095" d="M 90.5,184.5 C 93.4261,185.461 96.4261,186.127 99.5,186.5C 99.1667,188.5 98.8333,190.5 98.5,192.5C 106.336,194.722 114.17,197.056 122,199.5C 123.887,199.031 125.387,198.031 126.5,196.5C 128.5,197.167 130.5,197.833 132.5,198.5C 131.584,205.269 129.584,211.936 126.5,218.5C 126.167,218.833 125.833,219.167 125.5,219.5C 123.382,218.054 121.049,217.387 118.5,217.5C 119.138,215.54 119.138,213.707 118.5,212C 110.386,209.462 102.386,206.629 94.5,203.5C 93.561,205.053 92.3943,206.387 91,207.5C 89.1284,206.932 87.2951,206.265 85.5,205.5C 84.3691,203.926 84.2025,202.259 85,200.5C 86.7438,195.101 88.5771,189.768 90.5,184.5 Z"/></g>
<g><path style="opacity:1" fill="#0f5095" d="M 251.5,191.5 C 254.928,201.085 257.928,210.918 260.5,221C 260.33,223.527 259.33,224.027 257.5,222.5C 257.167,223.5 256.833,224.5 256.5,225.5C 258.936,237.446 260.936,249.446 262.5,261.5C 254.833,261.5 247.167,261.5 239.5,261.5C 241.026,256.09 242.859,250.756 245,245.5C 246.851,227.441 249.017,209.441 251.5,191.5 Z"/></g>
<g><path style="opacity:1" fill="#749dc4" d="M 40.5,195.5 C 39.5,196.167 38.5,196.833 37.5,197.5C 36.0783,197.291 34.745,196.791 33.5,196C 35.8098,195.503 38.1432,195.337 40.5,195.5 Z"/></g>
<g><path style="opacity:1" fill="#185498" d="M 231.5,194.5 C 234.562,211.326 236.728,228.326 238,245.5C 235.318,242.65 232.484,239.984 229.5,237.5C 227.517,238.982 225.684,240.649 224,242.5C 223.833,241.333 223.667,240.167 223.5,239C 226.747,224.264 229.414,209.431 231.5,194.5 Z"/></g>
<g><path style="opacity:1" fill="#165397" d="M 470.5,199.5 C 475.123,198.408 476.956,200.075 476,204.5C 471.437,208.06 466.604,211.227 461.5,214C 467.098,213.117 472.765,212.284 478.5,211.5C 478.5,213.167 478.5,214.833 478.5,216.5C 469.313,218.937 459.98,220.604 450.5,221.5C 450.244,219.208 450.577,217.041 451.5,215C 456.833,212 462.167,209 467.5,206C 461.194,206.989 454.861,208.156 448.5,209.5C 448.146,207.459 448.146,205.626 448.5,204C 456.03,202.778 463.364,201.278 470.5,199.5 Z"/></g>
<g><path style="opacity:1" fill="#8ba7cb" d="M 493.5,197.5 C 494.913,200.219 495.58,203.219 495.5,206.5C 494.087,203.781 493.42,200.781 493.5,197.5 Z"/></g>
<g><path style="opacity:1" fill="#165397" d="M 43.5,226.5 C 44.4511,225.081 44.7845,223.415 44.5,221.5C 42.8333,221.5 41.1667,221.5 39.5,221.5C 33.1545,220.942 26.8211,220.276 20.5,219.5C 20.5,217.5 20.5,215.5 20.5,213.5C 28.7491,215.155 37.0824,216.155 45.5,216.5C 45.5,214.5 45.5,212.5 45.5,210.5C 48.8925,210.375 50.2259,212.042 49.5,215.5C 49.1105,219.562 48.4439,223.562 47.5,227.5C 46.8333,227.833 46.1667,228.167 45.5,228.5C 44.2867,228.253 43.62,227.586 43.5,226.5 Z"/></g>
<g><path style="opacity:1" fill="#235a9c" d="M 269.5,217.5 C 271.555,218.948 273.722,220.281 276,221.5C 277.332,231.812 277.999,242.145 278,252.5C 274.69,240.927 271.857,229.261 269.5,217.5 Z"/></g>
<g><path style="opacity:1" fill="#628dbb" d="M 39.5,221.5 C 41.1667,221.5 42.8333,221.5 44.5,221.5C 44.7845,223.415 44.4511,225.081 43.5,226.5C 43.5,225.167 43.5,223.833 43.5,222.5C 41.901,222.768 40.5676,222.434 39.5,221.5 Z"/></g>
<g><path style="opacity:1" fill="#125196" d="M 78.5,223.5 C 81.5,223.5 84.5,223.5 87.5,223.5C 87.5,225.167 87.5,226.833 87.5,228.5C 96.4978,228.881 105.498,229.214 114.5,229.5C 114.33,228.178 114.663,227.011 115.5,226C 118.146,225.503 120.813,225.336 123.5,225.5C 123.055,238.181 122.388,250.848 121.5,263.5C 116.518,262.947 111.518,262.613 106.5,262.5C 106.5,259.167 106.5,255.833 106.5,252.5C 108.833,252.5 111.167,252.5 113.5,252.5C 113.5,249.167 113.5,245.833 113.5,242.5C 110.833,242.5 108.167,242.5 105.5,242.5C 105.777,245.448 105.444,248.281 104.5,251C 101.493,251.301 98.4929,251.135 95.5,250.5C 95.2739,247.751 95.6072,245.084 96.5,242.5C 93.2317,241.513 89.8984,241.18 86.5,241.5C 86.5,243.167 86.5,244.833 86.5,246.5C 83.5525,246.777 80.7191,246.444 78,245.5C 77.4787,238.152 77.6454,230.819 78.5,223.5 Z"/></g>
<g><path style="opacity:1" fill="#165297" d="M 457.5,224.5 C 464.175,224.334 470.842,224.5 477.5,225C 481.714,229.2 482.548,234.034 480,239.5C 478.352,240.717 476.519,241.55 474.5,242C 467.392,242.924 460.392,242.591 453.5,241C 451.544,237.405 451.044,233.572 452,229.5C 453.352,227.251 455.185,225.584 457.5,224.5 Z"/></g>
<g><path style="opacity:1" fill="#f3f6fa" d="M 466.5,229.5 C 469.579,229.26 472.579,229.593 475.5,230.5C 476.76,232.353 476.76,234.186 475.5,236C 469.322,237.67 463.155,237.836 457,236.5C 456.202,234.741 456.369,233.074 457.5,231.5C 460.64,230.911 463.64,230.244 466.5,229.5 Z"/></g>
<g><path style="opacity:1" fill="#1d5699" d="M 25.5,243.5 C 26.1524,242.551 26.4857,241.385 26.5,240C 26.3917,238.319 25.7251,237.152 24.5,236.5C 19.5,237.5 17.5,235.5 18.5,230.5C 28.2635,232.024 37.9301,234.024 47.5,236.5C 47.5,239.167 47.5,241.833 47.5,244.5C 38.0711,246.071 28.7377,248.071 19.5,250.5C 17.1152,244.547 19.1152,242.214 25.5,243.5 Z"/></g>
<g><path style="opacity:1" fill="#185498" d="M 289.5,234.5 C 293.73,245.754 296.563,257.421 298,269.5C 294.124,267.264 289.958,265.93 285.5,265.5C 286.714,255.146 288.047,244.812 289.5,234.5 Z"/></g>
<g><path style="opacity:1" fill="#6f97c1" d="M 24.5,236.5 C 25.7251,237.152 26.3917,238.319 26.5,240C 26.4857,241.385 26.1524,242.551 25.5,243.5C 25.702,241.05 25.3686,238.717 24.5,236.5 Z"/></g>
<g><path style="opacity:1" fill="#e8eef5" d="M 30.5,238.5 C 45.1616,239.501 45.1616,240.501 30.5,241.5C 30.5,240.5 30.5,239.5 30.5,238.5 Z"/></g>
<g><path style="opacity:1" fill="#155297" d="M 192.5,237.5 C 193.268,238.263 193.768,239.263 194,240.5C 195.396,251.907 196.23,263.241 196.5,274.5C 189.724,277.054 183.391,280.387 177.5,284.5C 182.191,269.081 187.191,253.414 192.5,237.5 Z"/></g>
<g><path style="opacity:1" fill="#1a5598" d="M 315.5,272.5 C 315.795,274.735 315.461,276.735 314.5,278.5C 313.21,277.942 312.377,276.942 312,275.5C 311.234,267.435 310.067,259.435 308.5,251.5C 309.084,248.2 311.084,246.866 314.5,247.5C 314.782,255.836 315.116,264.169 315.5,272.5 Z"/></g>
<g><path style="opacity:1" fill="#6e98c1" d="M 460.5,248.5 C 457.721,248.279 455.054,248.612 452.5,249.5C 453.334,248.252 454.667,247.585 456.5,247.5C 458.045,247.511 459.378,247.844 460.5,248.5 Z"/></g>
<g><path style="opacity:1" fill="#115196" d="M 460.5,248.5 C 467.196,248.391 473.863,248.724 480.5,249.5C 480.5,251.167 480.5,252.833 480.5,254.5C 476.833,254.5 473.167,254.5 469.5,254.5C 466.36,253.359 463.027,253.192 459.5,254C 461.154,254.608 462.821,255.108 464.5,255.5C 469.83,256.831 475.163,258.164 480.5,259.5C 480.5,260.833 480.5,262.167 480.5,263.5C 472.463,264.339 464.463,265.506 456.5,267C 462.825,267.5 469.158,267.666 475.5,267.5C 476.568,268.434 477.901,268.768 479.5,268.5C 479.5,270.167 479.5,271.833 479.5,273.5C 470.18,272.871 460.846,272.538 451.5,272.5C 451.5,269.5 451.5,266.5 451.5,263.5C 457.442,262.343 463.442,261.51 469.5,261C 464.079,259.804 458.746,258.304 453.5,256.5C 452.526,254.257 452.192,251.924 452.5,249.5C 455.054,248.612 457.721,248.279 460.5,248.5 Z"/></g>
<g><path style="opacity:1" fill="#0b4f95" d="M 408.5,267.5 C 406.886,269.075 404.886,269.741 402.5,269.5C 401.5,269.5 400.5,269.5 399.5,269.5C 399.9,263.171 400.233,256.838 400.5,250.5C 417.632,251.391 424.798,260.391 422,277.5C 419.091,288.578 411.925,294.244 400.5,294.5C 389.912,294.413 382.746,289.413 379,279.5C 377.535,272.426 378.701,265.926 382.5,260C 380.679,257.544 380.012,254.711 380.5,251.5C 385.854,251.569 391.187,251.902 396.5,252.5C 396.813,255.247 396.48,257.914 395.5,260.5C 388.046,263.736 385.879,269.069 389,276.5C 390.543,278.378 392.376,279.878 394.5,281C 400.097,282.091 405.43,281.424 410.5,279C 414.82,273.44 414.486,268.273 409.5,263.5C 408.571,264.689 408.238,266.022 408.5,267.5 Z"/></g>
<g><path style="opacity:1" fill="#96b4d2" d="M 469.5,254.5 C 467.585,254.216 465.919,254.549 464.5,255.5C 462.821,255.108 461.154,254.608 459.5,254C 463.027,253.192 466.36,253.359 469.5,254.5 Z"/></g>
<g><path style="opacity:1" fill="#0f5095" d="M 46.5,256.5 C 46.5,258.167 46.5,259.833 46.5,261.5C 42.9581,261.187 39.6248,261.521 36.5,262.5C 32.5,262.5 28.5,262.5 24.5,262.5C 22.1137,262.741 20.1137,262.075 18.5,260.5C 18.5,259.5 18.5,258.5 18.5,257.5C 27.823,256.932 37.1564,256.599 46.5,256.5 Z"/></g>
<g><path style="opacity:1" fill="#6e98c1" d="M 46.5,256.5 C 47.4614,258.265 47.7947,260.265 47.5,262.5C 43.8333,262.5 40.1667,262.5 36.5,262.5C 39.6248,261.521 42.9581,261.187 46.5,261.5C 46.5,259.833 46.5,258.167 46.5,256.5 Z"/></g>
<g><path style="opacity:1" fill="#779ec5" d="M 18.5,260.5 C 20.1137,262.075 22.1137,262.741 24.5,262.5C 22.7354,263.461 20.7354,263.795 18.5,263.5C 18.5,262.5 18.5,261.5 18.5,260.5 Z"/></g>
<g><path style="opacity:1" fill="#0c4f95" d="M 238.5,266.5 C 240.857,266.337 243.19,266.503 245.5,267C 230.563,275.434 217.229,285.934 205.5,298.5C 198.955,295.285 193.289,290.952 188.5,285.5C 204.081,275.978 220.747,269.645 238.5,266.5 Z"/></g>
<g><path style="opacity:1" fill="#0b4f95" d="M 119.5,267.5 C 120.376,267.369 121.043,267.702 121.5,268.5C 123.638,274.247 125.971,279.914 128.5,285.5C 122.676,291.156 116.676,296.656 110.5,302C 118.853,302.168 127.187,302.668 135.5,303.5C 138.434,309.638 140.767,315.971 142.5,322.5C 140.213,322.724 138.047,323.391 136,324.5C 133.75,321.09 130.917,320.59 127.5,323C 121.459,325.402 115.459,327.902 109.5,330.5C 108.253,332.006 108.253,333.506 109.5,335C 106.792,336.069 104.125,337.236 101.5,338.5C 98.1626,332.655 95.496,326.488 93.5,320C 95.589,317.87 98.089,316.37 101,315.5C 101.523,317.223 102.523,318.556 104,319.5C 110.11,316.862 116.277,314.362 122.5,312C 112.12,311.191 101.786,311.358 91.5,312.5C 89.8877,311.451 88.8877,309.951 88.5,308C 95.8366,299.999 103.837,292.666 112.5,286C 106.136,287.903 99.8022,290.236 93.5,293C 93.201,294.32 93.0343,295.82 93,297.5C 90.9777,298.786 88.8111,299.786 86.5,300.5C 83.6098,295.863 81.2764,290.863 79.5,285.5C 83.08,281.375 86.7467,281.042 90.5,284.5C 98.733,281.717 106.733,278.383 114.5,274.5C 113.572,273.232 113.405,271.899 114,270.5C 116.058,269.771 117.891,268.771 119.5,267.5 Z"/></g>
<g><path style="opacity:1" fill="#115196" d="M 262.5,268.5 C 262.917,267.876 263.584,267.543 264.5,267.5C 283.134,270.989 300.801,277.155 317.5,286C 313.644,289.357 309.644,292.524 305.5,295.5C 293.268,283.214 278.934,274.214 262.5,268.5 Z"/></g>
<g><path style="opacity:1" fill="#5d8bb9" d="M 408.5,267.5 C 408.5,268.5 408.5,269.5 408.5,270.5C 406.265,270.795 404.265,270.461 402.5,269.5C 404.265,270.461 406.265,270.795 408.5,270.5C 408.5,269.5 408.5,268.5 408.5,267.5 Z"/></g>
<g><path style="opacity:1" fill="#7ca3c7" d="M 475.5,267.5 C 477.167,267.5 478.833,267.5 480.5,267.5C 480.795,269.735 480.461,271.735 479.5,273.5C 479.5,271.833 479.5,270.167 479.5,268.5C 477.901,268.768 476.568,268.434 475.5,267.5 Z"/></g>
<g><path style="opacity:1" fill="#1b5598" d="M 39.5,271.5 C 42.1873,271.336 44.854,271.503 47.5,272C 48.7596,273.814 48.7596,275.647 47.5,277.5C 42.292,280.535 36.9586,283.368 31.5,286C 37.433,285.129 43.433,284.296 49.5,283.5C 49.5,285.5 49.5,287.5 49.5,289.5C 40.1339,290.315 30.8006,291.315 21.5,292.5C 21.1043,289.956 21.771,287.789 23.5,286C 28.3728,283.064 33.3728,280.397 38.5,278C 32.184,278.658 25.8507,279.491 19.5,280.5C 19.5,278.5 19.5,276.5 19.5,274.5C 26.3804,274.042 33.0471,273.042 39.5,271.5 Z"/></g>
<g><path style="opacity:1" fill="#135297" d="M 243.5,273.5 C 244.239,273.369 244.906,273.536 245.5,274C 236.819,283.195 229.486,293.362 223.5,304.5C 219.496,304.69 215.83,303.357 212.5,300.5C 221.375,289.612 231.708,280.612 243.5,273.5 Z"/></g>
<g><path style="opacity:1" fill="#135297" d="M 258.5,273.5 C 273.314,277.715 286.148,285.715 297,297.5C 297.667,298.167 297.667,298.833 297,299.5C 293.836,301.888 290.336,303.055 286.5,303C 278.706,291.706 269.372,281.872 258.5,273.5 Z"/></g>
<g><path style="opacity:1" fill="#bdd0e3" d="M 247.5,277.5 C 247.56,276.957 247.893,276.624 248.5,276.5C 249.817,282.654 249.817,288.654 248.5,294.5C 248.822,288.642 248.489,282.975 247.5,277.5 Z"/></g>
<g><path style="opacity:1" fill="#447baf" d="M 256.5,277.5 C 255.833,283.833 255.167,290.167 254.5,296.5C 254.17,289.8 254.503,283.134 255.5,276.5C 256.107,276.624 256.44,276.957 256.5,277.5 Z"/></g>
<g><path style="opacity:1" fill="#8eafcf" d="M 315.5,272.5 C 316.797,274.693 316.797,277.027 315.5,279.5C 314.893,279.376 314.56,279.043 314.5,278.5C 315.461,276.735 315.795,274.735 315.5,272.5 Z"/></g>
<g><path style="opacity:1" fill="#054d94" d="M 247.5,277.5 C 248.489,282.975 248.822,288.642 248.5,294.5C 248.5,299.5 248.5,304.5 248.5,309.5C 242.082,309.558 235.748,308.892 229.5,307.5C 233.458,296.246 239.458,286.246 247.5,277.5 Z"/></g>
<g><path style="opacity:1" fill="#094e94" d="M 256.5,277.5 C 266.32,284.994 273.987,294.328 279.5,305.5C 271.618,309.343 263.285,311.01 254.5,310.5C 254.5,305.833 254.5,301.167 254.5,296.5C 255.167,290.167 255.833,283.833 256.5,277.5 Z"/></g>
<g><path style="opacity:1" fill="#074e94" d="M 181.5,288.5 C 182.552,288.351 183.552,288.517 184.5,289C 189.241,294.412 194.574,299.079 200.5,303C 191.494,313.678 183.66,325.178 177,337.5C 168.964,330.296 161.797,322.296 155.5,313.5C 163.58,304.417 172.247,296.084 181.5,288.5 Z"/></g>
<g><path style="opacity:1" fill="#195498" d="M 448.5,288.5 C 449.833,288.5 451.167,288.5 452.5,288.5C 452.308,291.601 451.642,294.601 450.5,297.5C 452.608,298.944 454.941,299.61 457.5,299.5C 457.833,296.833 458.167,294.167 458.5,291.5C 460.484,291.383 462.15,292.05 463.5,293.5C 462.215,296.021 461.548,298.687 461.5,301.5C 463.547,301.511 465.547,301.844 467.5,302.5C 468.167,302.167 468.833,301.833 469.5,301.5C 470.167,299.5 470.833,297.5 471.5,295.5C 472.689,294.571 474.022,294.238 475.5,294.5C 474.946,299.718 473.612,304.718 471.5,309.5C 463.215,307.179 454.882,305.012 446.5,303C 445.941,302.275 445.608,301.442 445.5,300.5C 446.505,296.482 447.505,292.482 448.5,288.5 Z"/></g>
<g><path style="opacity:1" fill="#064e94" d="M 320.5,290.5 C 330.34,296.664 339.007,304.33 346.5,313.5C 342.587,320.082 337.587,325.749 331.5,330.5C 325.851,319.36 318.851,309.194 310.5,300C 314.065,297.056 317.399,293.889 320.5,290.5 Z"/></g>
<g><path style="opacity:1" fill="#0d5095" d="M 370.5,297.5 C 373.381,298.274 376.048,299.607 378.5,301.5C 377.96,302.748 377.293,303.915 376.5,305C 384.735,307.262 393.069,309.095 401.5,310.5C 403.425,310.41 404.592,309.41 405,307.5C 407.583,308.874 410.083,310.374 412.5,312C 409.126,317.916 405.626,323.75 402,329.5C 400,328.167 398,326.833 396,325.5C 395.966,323.82 395.799,322.32 395.5,321C 390.1,321.066 387.266,323.9 387,329.5C 388,330.5 389,331.5 390,332.5C 390.833,331.5 391.667,330.5 392.5,329.5C 395.047,330.934 397.381,332.6 399.5,334.5C 396.528,340.122 393.195,345.455 389.5,350.5C 387.004,349.42 384.67,348.086 382.5,346.5C 383.64,344.922 384.14,343.256 384,341.5C 378.333,335.167 372.667,328.833 367,322.5C 363.992,327.335 360.826,327.168 357.5,322C 362.233,314.033 366.567,305.866 370.5,297.5 Z"/></g>
<g><path style="opacity:1" fill="#074e94" d="M 300.5,303.5 C 304.503,303.971 307.669,305.971 310,309.5C 316.577,317.649 322.41,326.316 327.5,335.5C 320.672,340.415 313.672,345.081 306.5,349.5C 302.429,335.446 297.096,321.946 290.5,309C 294.024,307.407 297.358,305.573 300.5,303.5 Z"/></g>
<g><path style="opacity:1" fill="#074e94" d="M 206.5,305.5 C 210.962,307.231 215.295,309.231 219.5,311.5C 213.153,325.219 208.82,339.553 206.5,354.5C 197.144,352.324 189.144,347.824 182.5,341C 188.153,327.512 196.153,315.679 206.5,305.5 Z"/></g>
<g><path style="opacity:1" fill="#175397" d="M 446.5,308.5 C 454.661,309.165 461.828,312.165 468,317.5C 468.408,321.962 467.741,326.295 466,330.5C 465.481,331.516 464.647,332.182 463.5,332.5C 455.137,329.823 446.804,327.156 438.5,324.5C 438.717,317.794 441.384,312.461 446.5,308.5 Z"/></g>
<g><path style="opacity:1" fill="#135297" d="M 45.5,310.5 C 55.8691,309.554 60.0358,314.221 58,324.5C 55.0118,328.566 52.5118,328.4 50.5,324C 53.2036,322.171 54.037,319.671 53,316.5C 52.2753,315.941 51.4419,315.608 50.5,315.5C 46.1716,316.997 41.8382,318.497 37.5,320C 32.6984,325.781 34.0318,328.115 41.5,327C 42.7111,325.887 42.7111,324.72 41.5,323.5C 44.2913,320.727 46.1246,321.393 47,325.5C 47.4935,327.134 47.6602,328.801 47.5,330.5C 42.8181,331.845 38.1514,333.178 33.5,334.5C 33.4056,331.015 32.239,328.015 30,325.5C 28.7069,321.418 29.8735,318.251 33.5,316C 37.6443,314.241 41.6443,312.408 45.5,310.5 Z"/></g>
<g><path style="opacity:1" fill="#034d93" d="M 259.5,362.5 C 257.833,362.5 256.167,362.5 254.5,362.5C 254.828,351.654 254.494,340.987 253.5,330.5C 253.5,325.833 253.5,321.167 253.5,316.5C 263.205,315.9 272.705,314.233 282,311.5C 282.833,311.833 283.667,312.167 284.5,312.5C 290.976,325.093 295.976,338.26 299.5,352C 299.355,352.772 299.022,353.439 298.5,354C 285.999,359.209 272.999,362.043 259.5,362.5 Z"/></g>
<g><path style="opacity:1" fill="#064d94" d="M 224.5,312.5 C 232.391,314.229 240.391,315.229 248.5,315.5C 248.5,331.5 248.5,347.5 248.5,363.5C 236.421,363.825 224.755,361.825 213.5,357.5C 213.167,356.667 212.833,355.833 212.5,355C 215.051,340.406 219.051,326.24 224.5,312.5 Z"/></g>
<g><path style="opacity:1" fill="#f2f6f9" d="M 446.5,314.5 C 451.702,315.289 456.702,316.789 461.5,319C 463.229,320.789 463.896,322.956 463.5,325.5C 457.297,324.656 451.297,322.989 445.5,320.5C 444.23,318.243 444.564,316.243 446.5,314.5 Z"/></g>
<g><path style="opacity:1" fill="#ebf1f6" d="M 374.5,317.5 C 377.428,316.601 380.428,316.934 383.5,318.5C 382.974,320.23 381.974,321.564 380.5,322.5C 378.481,320.81 376.481,319.144 374.5,317.5 Z"/></g>
<g><path style="opacity:1" fill="#0d4f95" d="M 135.5,329.5 C 150.633,327.648 160.466,333.981 165,348.5C 165.667,347.833 166.333,347.167 167,346.5C 168.458,348.96 170.291,351.127 172.5,353C 168.618,357.183 164.451,361.016 160,364.5C 158.333,362.833 156.667,361.167 155,359.5C 155.326,355.53 155.326,351.53 155,347.5C 151.723,341.891 146.89,340.058 140.5,342C 136.333,344.833 132.833,348.333 130,352.5C 128.632,358.269 130.466,362.769 135.5,366C 137.833,366.667 140.167,366.667 142.5,366C 141.36,364.027 140.027,362.193 138.5,360.5C 140.5,358.5 142.5,356.5 144.5,354.5C 148.791,359.292 153.291,363.959 158,368.5C 158.667,369.167 158.667,369.833 158,370.5C 144.775,380.933 132.775,379.6 122,366.5C 114.15,349.55 118.65,337.217 135.5,329.5 Z"/></g>
<g><path style="opacity:1" fill="#165398" d="M 59.5,330.5 C 63.5261,330.257 64.8594,331.923 63.5,335.5C 57.5,338.5 51.5,341.5 45.5,344.5C 43.4125,349.019 44.7458,350.852 49.5,350C 55.3791,346.894 61.3791,344.06 67.5,341.5C 68.9744,342.436 69.9744,343.77 70.5,345.5C 63.9911,349.255 57.3245,352.755 50.5,356C 45.078,357.035 41.578,354.869 40,349.5C 39.2716,346.77 39.4383,344.103 40.5,341.5C 46.7326,337.554 53.0659,333.887 59.5,330.5 Z"/></g>
<g><path style="opacity:1" fill="#487eb1" d="M 253.5,330.5 C 254.494,340.987 254.828,351.654 254.5,362.5C 256.167,362.5 257.833,362.5 259.5,362.5C 257.735,363.461 255.735,363.795 253.5,363.5C 253.5,352.5 253.5,341.5 253.5,330.5 Z"/></g>
<g><path style="opacity:1" fill="#0c4f95" d="M 346.5,334.5 C 349.263,334.744 351.429,336.077 353,338.5C 352.667,340.167 352.333,341.833 352,343.5C 357.5,349 363,354.5 368.5,360C 370.047,360.333 371.38,359.833 372.5,358.5C 374.54,360.177 376.54,361.844 378.5,363.5C 373.833,368.5 369.167,373.5 364.5,378.5C 362.167,376.833 360.167,374.833 358.5,372.5C 359.833,371.38 360.333,370.047 360,368.5C 354.616,362.613 348.783,357.28 342.5,352.5C 341.5,353.167 340.5,353.833 339.5,354.5C 337.35,352.851 335.35,351.018 333.5,349C 337.67,343.998 342.004,339.164 346.5,334.5 Z"/></g>
<g><path style="opacity:1" fill="#185498" d="M 430.5,339.5 C 431.973,340.072 433.307,340.905 434.5,342C 433.16,344.349 431.826,346.683 430.5,349C 431.886,351.417 433.886,352.417 436.5,352C 437.708,349.75 439.041,347.583 440.5,345.5C 441.833,346.167 442.833,347.167 443.5,348.5C 442.5,350.5 441.5,352.5 440.5,354.5C 442.5,356.327 444.667,357.994 447,359.5C 448.123,356.751 449.623,354.251 451.5,352C 453.076,351.612 454.409,352.112 455.5,353.5C 453,357.833 450.5,362.167 448,366.5C 439.586,362.045 431.419,357.211 423.5,352C 425.719,347.725 428.052,343.559 430.5,339.5 Z"/></g>
<g><path style="opacity:1" fill="#165498" d="M 73.5,353.5 C 75.0744,353.937 76.2411,354.937 77,356.5C 77.6172,357.449 77.4506,358.282 76.5,359C 69.3324,363.083 62.3324,367.416 55.5,372C 52.9977,372.28 51.331,371.113 50.5,368.5C 58.4024,363.725 66.0691,358.725 73.5,353.5 Z"/></g>
<g><path style="opacity:1" fill="#0c4f95" d="M 328.5,353.5 C 333.063,356.47 333.729,359.803 330.5,363.5C 334,369.833 337.5,376.167 341,382.5C 343.537,393.903 339.037,401.07 327.5,404C 320.989,405.874 315.822,404.041 312,398.5C 308.167,392.167 304.333,385.833 300.5,379.5C 299.5,380.167 298.5,380.833 297.5,381.5C 295.556,379.72 294.223,377.553 293.5,375C 298.733,371.13 304.233,367.63 310,364.5C 311.734,366.29 313.234,368.29 314.5,370.5C 313.737,371.719 312.737,372.719 311.5,373.5C 315.2,379.37 318.7,385.37 322,391.5C 323.99,394.722 326.49,395.222 329.5,393C 330.992,388.469 330.159,384.303 327,380.5C 325,377.167 323,373.833 321,370.5C 319.542,369.253 318.042,369.253 316.5,370.5C 314.914,368.33 313.58,365.996 312.5,363.5C 317.898,360.142 323.231,356.808 328.5,353.5 Z"/></g>
<g><path style="opacity:1" fill="#0d4f95" d="M 182.5,358.5 C 192.208,362.521 201.542,367.355 210.5,373C 209.167,375 207.833,377 206.5,379C 205.101,379.595 203.768,379.428 202.5,378.5C 199.709,387.655 198.209,396.988 198,406.5C 198.925,407.047 199.758,407.713 200.5,408.5C 199.544,411.439 197.877,413.772 195.5,415.5C 189.379,412.605 183.379,409.439 177.5,406C 179.266,403.904 180.599,401.571 181.5,399C 182.951,399.263 184.284,399.096 185.5,398.5C 186.681,396.802 186.681,395.135 185.5,393.5C 182.612,391.71 179.612,390.543 176.5,390C 175.313,391.019 174.313,392.186 173.5,393.5C 174.737,394.281 175.737,395.281 176.5,396.5C 175.499,399.173 173.999,401.507 172,403.5C 165.89,400.532 160.057,397.199 154.5,393.5C 155.5,391.5 156.5,389.5 157.5,387.5C 159.731,387.113 162.064,386.947 164.5,387C 170.833,380.667 177.167,374.333 183.5,368C 181.777,367.477 180.444,366.477 179.5,365C 180.377,362.747 181.377,360.581 182.5,358.5 Z"/></g>
<g><path style="opacity:1" fill="#175397" d="M 419.5,359.5 C 428.448,360.276 435.615,364.276 441,371.5C 441.667,373.5 441.667,375.5 441,377.5C 439.291,380.418 437.458,383.252 435.5,386C 427.01,382.566 419.176,377.733 412,371.5C 413.687,367.155 416.187,363.155 419.5,359.5 Z"/></g>
<g><path style="opacity:1" fill="#f5f8fa" d="M 420.5,365.5 C 426.542,366.438 431.709,369.105 436,373.5C 436.977,376.259 436.144,378.259 433.5,379.5C 428.196,376.188 423.196,372.521 418.5,368.5C 419.193,367.482 419.859,366.482 420.5,365.5 Z"/></g>
<g><path style="opacity:1" fill="#145297" d="M 82.5,365.5 C 85.2226,368.586 87.7226,371.92 90,375.5C 91.2016,379.793 90.0349,383.293 86.5,386C 83.0026,388.583 79.3359,390.916 75.5,393C 72.7695,393.728 70.1029,393.562 67.5,392.5C 64.2473,389.307 62.0806,385.64 61,381.5C 68.3499,376.303 75.5166,370.97 82.5,365.5 Z"/></g>
<g><path style="opacity:1" fill="#f0f4f8" d="M 81.5,373.5 C 84.4734,373.965 85.6401,375.632 85,378.5C 80.8191,383.656 75.6525,386.823 69.5,388C 67.7888,386.867 67.2888,385.367 68,383.5C 72.683,380.303 77.183,376.97 81.5,373.5 Z"/></g>
<g><path style="opacity:1" fill="#f1f5f9" d="M 189.5,376.5 C 190.895,379.85 190.228,382.85 187.5,385.5C 185.998,384.917 184.665,384.084 183.5,383C 185.706,380.963 187.706,378.797 189.5,376.5 Z"/></g>
<g><path style="opacity:1" fill="#175498" d="M 407.5,375.5 C 415.388,380.542 422.888,386.208 430,392.5C 430.022,395.47 428.522,396.636 425.5,396C 418.663,390.659 411.996,385.159 405.5,379.5C 406.63,378.378 407.297,377.044 407.5,375.5 Z"/></g>
<g><path style="opacity:1" fill="#125297" d="M 401.5,383.5 C 408.126,388.292 413.96,393.959 419,400.5C 420.419,406.44 418.252,410.607 412.5,413C 409.449,413.857 406.783,413.19 404.5,411C 399.625,405.957 394.625,401.124 389.5,396.5C 390.48,395.019 391.647,393.685 393,392.5C 398.468,396.967 403.635,401.8 408.5,407C 413.1,408.583 414.934,407.083 414,402.5C 409.301,397.466 404.301,392.8 399,388.5C 399.058,386.565 399.891,384.898 401.5,383.5 Z"/></g>
<g><path style="opacity:1" fill="#1b5699" d="M 97.5,385.5 C 101.935,388.1 105.602,391.6 108.5,396C 107.646,397.022 106.646,397.855 105.5,398.5C 103.35,396.851 101.35,395.018 99.5,393C 97.2484,393.05 95.5818,394.216 94.5,396.5C 95.8149,398.316 97.3149,399.983 99,401.5C 99.3087,403.391 98.4753,404.725 96.5,405.5C 94.1421,403.976 92.3088,401.976 91,399.5C 88.9824,401.35 87.1491,403.35 85.5,405.5C 87.4121,407.657 89.0787,409.991 90.5,412.5C 89.8551,413.646 89.0217,414.646 88,415.5C 84.0646,412.238 80.898,408.404 78.5,404C 84.7071,397.625 91.0404,391.459 97.5,385.5 Z"/></g>
<g><path style="opacity:1" fill="#165498" d="M 383.5,401.5 C 387.286,401.393 390.286,402.893 392.5,406C 391.315,407.353 389.981,408.52 388.5,409.5C 382.126,406.039 380.293,407.706 383,414.5C 386.167,417.667 389.333,420.833 392.5,424C 397.71,423.732 398.71,421.399 395.5,417C 394.328,416.647 393.162,416.813 392,417.5C 390.5,417.333 389.667,416.5 389.5,415C 390.686,412.315 392.686,410.482 395.5,409.5C 399.353,412.519 402.687,416.019 405.5,420C 402.741,422.308 400.407,424.975 398.5,428C 395.167,430 391.833,430 388.5,428C 384.298,424.133 380.465,419.967 377,415.5C 376.333,412.833 376.333,410.167 377,407.5C 379.063,405.266 381.229,403.266 383.5,401.5 Z"/></g>
<g><path style="opacity:1" fill="#acc2db" d="M 68.5,422.5 C 72.4356,424.766 75.7689,427.766 78.5,431.5C 74.5644,429.234 71.2311,426.234 68.5,422.5 Z"/></g>
<g><path style="opacity:1" fill="#1c5699" d="M 139.5,435.5 C 144.328,435.385 145.661,437.552 143.5,442C 137.339,442.878 136.006,440.711 139.5,435.5 Z"/></g>
<g><path style="opacity:1" fill="#9ab2d2" d="M 84.5,437.5 C 86.4044,437.738 87.7377,438.738 88.5,440.5C 86.5956,440.262 85.2623,439.262 84.5,437.5 Z"/></g>
<g><path style="opacity:1" fill="#1c5699" d="M 344.5,438.5 C 348.935,438.752 350.268,440.919 348.5,445C 342.339,445.878 341.006,443.711 344.5,438.5 Z"/></g>
<g><path style="opacity:1" fill="#99b1d1" d="M 90.5,442.5 C 92.4044,442.738 93.7377,443.738 94.5,445.5C 92.5956,445.262 91.2623,444.262 90.5,442.5 Z"/></g>
<g><path style="opacity:1" fill="#165397" d="M 194.5,445.5 C 199.447,444.628 203.613,445.961 207,449.5C 207.818,452.227 207.652,454.894 206.5,457.5C 205.264,456.754 203.93,456.421 202.5,456.5C 203.493,451.325 201.493,449.491 196.5,451C 194.798,455.686 193.464,460.519 192.5,465.5C 192.207,469.338 193.874,470.838 197.5,470C 199.451,468.266 200.451,466.099 200.5,463.5C 199.5,463.5 198.5,463.5 197.5,463.5C 197.5,462.167 197.5,460.833 197.5,459.5C 200.482,459.963 203.482,460.296 206.5,460.5C 205.943,465.45 204.943,470.283 203.5,475C 201.567,475.783 200.067,475.283 199,473.5C 194.837,475.274 191.17,474.607 188,471.5C 186.957,463.09 188.291,455.09 192,447.5C 192.995,446.934 193.828,446.267 194.5,445.5 Z"/></g>
<g><path style="opacity:1" fill="#195498" d="M 289.5,447.5 C 291.604,447.201 293.604,447.534 295.5,448.5C 299.167,456.5 302.833,464.5 306.5,472.5C 304.892,473.318 303.225,473.985 301.5,474.5C 300.594,472.614 299.594,470.78 298.5,469C 296.527,468.505 294.527,468.338 292.5,468.5C 292.813,471.247 292.48,473.914 291.5,476.5C 289.929,477.309 288.262,477.643 286.5,477.5C 286.411,467.225 287.411,457.225 289.5,447.5 Z"/></g>
<g><path style="opacity:1" fill="#115196" d="M 216.5,450.5 C 218.5,450.5 220.5,450.5 222.5,450.5C 221.418,458.145 220.918,465.811 221,473.5C 223,476.167 225,476.167 227,473.5C 228.223,466.209 229.057,458.876 229.5,451.5C 231.167,451.5 232.833,451.5 234.5,451.5C 234.357,459.909 233.524,468.242 232,476.5C 229.959,478.974 227.292,479.974 224,479.5C 220.708,479.974 218.041,478.974 216,476.5C 215.656,467.829 215.822,459.162 216.5,450.5 Z"/></g>
<g><path style="opacity:1" fill="#135296" d="M 272.5,479.5 C 268.833,479.5 265.167,479.5 261.5,479.5C 261.802,476.941 261.468,474.607 260.5,472.5C 260.332,465.49 259.999,458.49 259.5,451.5C 264.179,451.334 268.845,451.501 273.5,452C 275.815,453.109 277.315,454.943 278,457.5C 278.667,463.5 278.667,469.5 278,475.5C 276.853,477.819 275.019,479.152 272.5,479.5 Z"/></g>
<g><path style="opacity:1" fill="#004b93" d="M 244.5,452.5 C 246.167,452.5 247.833,452.5 249.5,452.5C 249.5,461.833 249.5,471.167 249.5,480.5C 247.833,480.5 246.167,480.5 244.5,480.5C 244.5,471.167 244.5,461.833 244.5,452.5 Z"/></g>
<g><path style="opacity:1" fill="#9eb6d4" d="M 106.5,454.5 C 108.027,454.427 109.027,455.094 109.5,456.5C 107.973,456.573 106.973,455.906 106.5,454.5 Z"/></g>
<g><path style="opacity:1" fill="#f1f5f9" d="M 265.5,455.5 C 267.467,455.261 269.301,455.594 271,456.5C 273.486,462.02 273.986,467.686 272.5,473.5C 270.827,475.086 268.827,475.753 266.5,475.5C 266.388,468.82 266.054,462.153 265.5,455.5 Z"/></g>
<g><path style="opacity:1" fill="#f3f6fa" d="M 292.5,455.5 C 293.961,457.352 294.961,459.518 295.5,462C 295.387,463.28 294.72,464.113 293.5,464.5C 292.516,461.572 292.183,458.572 292.5,455.5 Z"/></g>
<g><path style="opacity:1" fill="#9db5d4" d="M 109.5,456.5 C 111.027,456.427 112.027,457.094 112.5,458.5C 110.973,458.573 109.973,457.906 109.5,456.5 Z"/></g>
<g><path style="opacity:1" fill="#b3c7de" d="M 112.5,458.5 C 114.027,458.427 115.027,459.094 115.5,460.5C 113.973,460.573 112.973,459.906 112.5,458.5 Z"/></g>
<g><path style="opacity:1" fill="#a0bbd6" d="M 260.5,472.5 C 261.468,474.607 261.802,476.941 261.5,479.5C 265.167,479.5 268.833,479.5 272.5,479.5C 268.702,480.483 264.702,480.817 260.5,480.5C 260.5,477.833 260.5,475.167 260.5,472.5 Z"/></g>
<g><path style="opacity:1" fill="#8ba7cb" d="M 196.5,493.5 C 199.781,493.42 202.781,494.087 205.5,495.5C 202.219,495.58 199.219,494.913 196.5,493.5 Z"/></g>
</svg>
