<?xml version="1.0" encoding="UTF-8"?>
<!DOCTYPE svg PUBLIC "-//W3C//DTD SVG 1.1//EN" "http://www.w3.org/Graphics/SVG/1.1/DTD/svg11.dtd">
<svg xmlns="http://www.w3.org/2000/svg" version="1.1" width="390px" height="390px" style="shape-rendering:geometricPrecision; text-rendering:geometricPrecision; image-rendering:optimizeQuality; fill-rule:evenodd; clip-rule:evenodd" xmlns:xlink="http://www.w3.org/1999/xlink">
<g><path style="opacity:0.891" fill="#070a53" d="M 179.5,-0.5 C 189.5,-0.5 199.5,-0.5 209.5,-0.5C 285.059,8.52609 339.559,47.1928 373,115.5C 382.145,137.077 387.645,159.41 389.5,182.5C 389.5,190.5 389.5,198.5 389.5,206.5C 382.266,279.488 346.599,333.654 282.5,369C 259.571,380.037 235.571,386.871 210.5,389.5C 199.833,389.5 189.167,389.5 178.5,389.5C 103.449,380.567 49.2821,342.234 16,274.5C 7.34686,254.547 1.84686,233.88 -0.5,212.5C -0.5,200.5 -0.5,188.5 -0.5,176.5C 9.45318,100.075 49.4532,45.9082 119.5,14C 138.947,6.30372 158.947,1.47039 179.5,-0.5 Z"/></g>
<g><path style="opacity:1" fill="#eaeaf1" d="M 176.5,4.5 C 265.264,1.51149 329.431,39.5115 369,118.5C 392.541,177.394 389.208,234.727 359,290.5C 306.793,369.143 234.293,398.31 141.5,378C 78.7443,357.578 35.911,316.411 13,254.5C -11.8346,157.278 17.6654,81.7779 101.5,28C 125.03,15.0417 150.03,7.20839 176.5,4.5 Z"/></g>
<g><path style="opacity:1" fill="#060a52" d="M 175.5,8.5 C 254.249,4.28658 314.416,35.2866 356,101.5C 384.571,154.446 388.237,209.113 367,265.5C 335.773,334.03 282.607,372.53 207.5,381C 129.828,383.258 70.9947,351.425 31,285.5C 0.0252046,225.638 -0.308129,165.638 30,105.5C 62.6289,49.5866 111.129,17.2533 175.5,8.5 Z"/></g>
<g><path style="opacity:1" fill="#f4f4f7" d="M 180.5,21.5 C 187.568,20.1732 194.735,20.1732 202,21.5C 202.667,24.8333 202.667,28.1667 202,31.5C 201.5,32 201,32.5 200.5,33C 201.437,35.7065 202.77,38.2065 204.5,40.5C 201.232,41.487 197.898,41.8204 194.5,41.5C 191.625,29.8701 189.958,29.8701 189.5,41.5C 186.482,41.6646 183.482,41.498 180.5,41C 181.826,34.4013 181.826,27.9013 180.5,21.5 Z"/></g>
<g><path style="opacity:1" fill="#f0f1f5" d="M 175.5,30.5 C 175.5,31.5 175.5,32.5 175.5,33.5C 173.585,33.2155 171.919,33.5489 170.5,34.5C 169.5,34.5 168.5,34.5 167.5,34.5C 167.5,36.1667 167.5,37.8333 167.5,39.5C 171.179,39.6374 174.679,38.9707 178,37.5C 178.494,39.1341 178.66,40.8008 178.5,42.5C 172.382,42.8477 166.382,43.8477 160.5,45.5C 159.538,38.5584 158.205,31.725 156.5,25C 162.663,23.1073 168.83,22.274 175,22.5C 175.483,23.448 175.649,24.448 175.5,25.5C 172.421,25.2601 169.421,25.5934 166.5,26.5C 165.548,28.0453 165.215,29.712 165.5,31.5C 168.883,31.7428 172.049,31.0761 175,29.5C 175.399,29.7284 175.565,30.0618 175.5,30.5 Z"/></g>
<g><path style="opacity:1" fill="#6b6d99" d="M 194.5,24.5 C 192.833,24.5 191.167,24.5 189.5,24.5C 189.5,25.8333 189.5,27.1667 189.5,28.5C 188.549,27.0813 188.216,25.4147 188.5,23.5C 190.735,23.2053 192.735,23.5386 194.5,24.5 Z"/></g>
<g><path style="opacity:1" fill="#010550" d="M 194.5,24.5 C 194.5,25.8333 194.5,27.1667 194.5,28.5C 192.833,28.5 191.167,28.5 189.5,28.5C 189.5,27.1667 189.5,25.8333 189.5,24.5C 191.167,24.5 192.833,24.5 194.5,24.5 Z"/></g>
<g><path style="opacity:1" fill="#ededf3" d="M 143.5,27.5 C 146.119,27.2317 148.619,27.565 151,28.5C 153.798,33.8798 155.132,39.5464 155,45.5C 148.992,49.1144 142.492,51.4477 135.5,52.5C 133.908,46.0572 131.908,39.7239 129.5,33.5C 134.151,31.2889 138.818,29.2889 143.5,27.5 Z"/></g>
<g><path style="opacity:1" fill="#f8f8fa" d="M 224.5,29.5 C 232.168,29.507 234.168,32.8403 230.5,39.5C 224.197,41.3634 221.364,39.0301 222,32.5C 223.045,31.6266 223.878,30.6266 224.5,29.5 Z"/></g>
<g><path style="opacity:1" fill="#0c0d54" d="M 140.5,32.5 C 141.978,32.238 143.311,32.5713 144.5,33.5C 146.326,37.3072 147.326,41.3072 147.5,45.5C 146.07,45.4208 144.736,45.7542 143.5,46.5C 141.734,42.3659 140.067,38.1993 138.5,34C 139.416,33.7216 140.082,33.2216 140.5,32.5 Z"/></g>
<g><path style="opacity:1" fill="#f1f1f5" d="M 253.5,31.5 C 259.021,32.924 264.354,34.924 269.5,37.5C 270.631,39.0745 270.798,40.7412 270,42.5C 266.472,40.1532 262.639,38.4865 258.5,37.5C 259.528,40.7144 261.862,42.5477 265.5,43C 266.687,44.0195 267.687,45.1861 268.5,46.5C 267.301,49.9439 265.634,53.1105 263.5,56C 257.294,55.5995 251.461,53.7662 246,50.5C 245.219,49.0563 245.386,47.723 246.5,46.5C 249.623,48.5439 252.956,50.2105 256.5,51.5C 257.5,51.1667 258.167,50.5 258.5,49.5C 255.133,47.7726 251.966,45.7726 249,43.5C 249.015,38.9576 250.515,34.9576 253.5,31.5 Z"/></g>
<g><path style="opacity:1" fill="#646694" d="M 175.5,30.5 C 176.434,31.5676 176.768,32.901 176.5,34.5C 174.5,34.5 172.5,34.5 170.5,34.5C 171.919,33.5489 173.585,33.2155 175.5,33.5C 175.5,32.5 175.5,31.5 175.5,30.5 Z"/></g>
<g><path style="opacity:1" fill="#f0f0f5" d="M 122.5,35.5 C 123.627,36.1217 124.627,36.955 125.5,38C 122.339,39.4131 119.339,41.0797 116.5,43C 117.46,44.4194 118.293,45.9194 119,47.5C 121.421,46.0394 123.921,44.7061 126.5,43.5C 128.111,44.3202 128.778,45.6536 128.5,47.5C 125.484,47.8406 122.818,49.0073 120.5,51C 121.46,52.4194 122.293,53.9194 123,55.5C 125.98,53.8663 128.98,52.1996 132,50.5C 132.5,51.5 133,52.5 133.5,53.5C 128.048,56.6415 122.548,59.6415 117,62.5C 114.502,56.0046 111.336,49.838 107.5,44C 112.563,41.1393 117.563,38.306 122.5,35.5 Z"/></g>
<g><path style="opacity:1" fill="#f0f0f4" d="M 276.5,41.5 C 279.483,42.6583 282.15,44.325 284.5,46.5C 283.559,48.7721 282.226,50.7721 280.5,52.5C 283.964,52.7717 287.464,52.105 291,50.5C 292.726,50.9459 294.226,51.7792 295.5,53C 292.851,53.4523 290.351,54.2857 288,55.5C 287.667,61.1667 287.333,66.8333 287,72.5C 280.467,70.1727 277.967,65.506 279.5,58.5C 276.53,59.3084 274.697,61.3084 274,64.5C 271.411,62.7888 268.911,60.9555 266.5,59C 271.014,53.8009 274.347,47.9676 276.5,41.5 Z"/></g>
<g><path style="opacity:1" fill="#fdfdfd" d="M 177.5,51.5 C 239.106,47.8839 286.273,71.8839 319,123.5C 341.065,165.055 343.398,207.721 326,251.5C 299.206,307.43 254.706,336.097 192.5,337.5C 129.086,334.389 84.919,303.722 60,245.5C 39.714,182.472 53.8806,128.639 102.5,84C 124.546,66.2654 149.546,55.4321 177.5,51.5 Z"/></g>
<g><path style="opacity:1" fill="#f0f0f4" d="M 93.5,52.5 C 94.4959,52.4142 95.3292,52.7476 96,53.5C 98.7533,58.0076 101.753,62.3409 105,66.5C 107.364,64.6372 109.864,62.9705 112.5,61.5C 113.287,62.2421 113.953,63.0754 114.5,64C 109.667,67.5 104.833,71 100,74.5C 96.3624,68.6967 92.529,63.03 88.5,57.5C 90.0063,55.5986 91.6729,53.9319 93.5,52.5 Z"/></g>
<g><path style="opacity:1" fill="#09255b" d="M 225.5,225.5 C 222.497,229.343 219.664,233.343 217,237.5C 197.263,213.273 177.763,188.94 158.5,164.5C 158.167,129.494 158.5,94.4937 159.5,59.5C 170.407,56.1439 181.574,54.8106 193,55.5C 203.654,55.103 214.154,56.103 224.5,58.5C 224.168,114.336 224.501,170.002 225.5,225.5 Z"/></g>
<g><path style="opacity:1" fill="#f3f3f6" d="M 301.5,57.5 C 304.225,58.713 306.559,60.5464 308.5,63C 304,68.1667 299.5,73.3333 295,78.5C 292.54,77.0422 290.373,75.2089 288.5,73C 293.738,68.5955 298.071,63.4288 301.5,57.5 Z"/></g>
<g><path style="opacity:1" fill="#f1f1f6" d="M 81.5,61.5 C 83.0898,61.6282 84.4231,62.2949 85.5,63.5C 82.1667,66.1667 79.1667,69.1667 76.5,72.5C 78.5965,77.1198 81.9299,79.9532 86.5,81C 89.2594,78.4262 88.926,76.2595 85.5,74.5C 84.1502,75.9501 82.4835,76.6168 80.5,76.5C 82.2895,72.188 85.1228,68.5214 89,65.5C 91.6458,68.9802 94.4791,72.3135 97.5,75.5C 93.0415,79.457 88.7081,83.6237 84.5,88C 83.2411,88.9819 81.9078,89.3152 80.5,89C 75.943,84.9461 71.943,80.4461 68.5,75.5C 72.799,70.8653 77.1323,66.1986 81.5,61.5 Z"/></g>
<g><path style="opacity:1" fill="#f3cccf" d="M 241.5,63.5 C 240.501,109.33 240.168,155.33 240.5,201.5C 240.672,202.492 240.338,203.158 239.5,203.5C 239.167,156.495 239.5,109.495 240.5,62.5C 241.107,62.6236 241.44,62.9569 241.5,63.5 Z"/></g>
<g><path style="opacity:1" fill="#d23440" d="M 241.5,63.5 C 266.46,72.6409 287.127,87.6409 303.5,108.5C 282.858,139.796 261.858,170.796 240.5,201.5C 240.168,155.33 240.501,109.33 241.5,63.5 Z"/></g>
<g><path style="opacity:1" fill="#d23440" d="M 141.5,65.5 C 142.498,91.9948 142.831,118.661 142.5,145.5C 117.487,181.537 92.4874,217.537 67.5,253.5C 43.1192,192.572 53.7858,138.738 99.5,92C 112.091,80.9039 126.091,72.0705 141.5,65.5 Z"/></g>
<g><path style="opacity:1" fill="#f4cdd0" d="M 141.5,65.5 C 141.56,64.9569 141.893,64.6236 142.5,64.5C 143.5,91.4918 143.833,118.492 143.5,145.5C 143.167,145.5 142.833,145.5 142.5,145.5C 142.831,118.661 142.498,91.9948 141.5,65.5 Z"/></g>
<g><path style="opacity:1" fill="#f0f0f5" d="M 321.5,78.5 C 322.552,78.3505 323.552,78.5172 324.5,79C 328.689,83.6876 332.689,88.5209 336.5,93.5C 335.855,94.646 335.022,95.646 334,96.5C 331.868,92.5691 329.035,89.2358 325.5,86.5C 321.854,88.8171 318.52,91.4838 315.5,94.5C 317.282,99.3225 319.616,99.6558 322.5,95.5C 320.043,93.6676 320.043,92.0009 322.5,90.5C 325.138,93.4744 327.805,96.4744 330.5,99.5C 327.526,102.138 324.526,104.805 321.5,107.5C 316.269,102.762 311.936,97.2622 308.5,91C 312.421,86.3788 316.754,82.2121 321.5,78.5 Z"/></g>
<g><path style="opacity:1" fill="#ececf2" d="M 62.5,79.5 C 64.0898,79.6282 65.4231,80.2949 66.5,81.5C 64.6201,84.0913 62.6201,86.5913 60.5,89C 61.6667,90.1667 62.8333,91.3333 64,92.5C 65.7146,90.2406 67.5479,88.0739 69.5,86C 70.9653,85.3987 71.9653,85.8987 72.5,87.5C 71.0787,90.0094 69.4121,92.3428 67.5,94.5C 68.515,97.1677 70.1817,97.8344 72.5,96.5C 74.4121,94.3428 76.0787,92.0094 77.5,89.5C 78.8805,89.9996 79.5472,90.9996 79.5,92.5C 76.5979,97.7391 72.9312,102.406 68.5,106.5C 63.1667,102.167 57.8333,97.8333 52.5,93.5C 56.2714,89.0753 59.6047,84.4087 62.5,79.5 Z"/></g>
<g><path style="opacity:1" fill="#f0f0f5" d="M 48.5,98.5 C 49.4959,98.4142 50.3292,98.7476 51,99.5C 54.9758,104.977 59.1425,110.31 63.5,115.5C 62.1582,121.685 58.4915,123.851 52.5,122C 47.4291,121.076 42.4291,119.909 37.5,118.5C 38.4432,115.6 40.1099,113.267 42.5,111.5C 47.7145,113.307 53.0479,114.14 58.5,114C 55.1167,110.072 51.6167,106.239 48,102.5C 47.4209,101.072 47.5876,99.7382 48.5,98.5 Z"/></g>
<g><path style="opacity:1" fill="#eeeef3" d="M 339.5,100.5 C 342.068,101.574 343.735,103.574 344.5,106.5C 340.329,109.847 335.829,112.847 331,115.5C 330.891,119.245 332.391,122.245 335.5,124.5C 340.167,121.833 344.833,119.167 349.5,116.5C 350.845,117.347 351.845,118.513 352.5,120C 346.828,122.836 341.162,125.669 335.5,128.5C 333.617,128.124 332.117,127.124 331,125.5C 328.803,121.315 326.636,117.149 324.5,113C 324.99,110.497 326.323,108.497 328.5,107C 332.56,105.311 336.227,103.144 339.5,100.5 Z"/></g>
<g><path style="opacity:1" fill="#0f0c53" d="M 303.5,108.5 C 305.416,109.665 306.249,111.332 306,113.5C 276.333,157.833 246.667,202.167 217,246.5C 210.053,237.578 202.887,228.912 195.5,220.5C 179.85,200.187 163.85,180.187 147.5,160.5C 146.602,158.095 145.102,156.095 143,154.5C 118.667,188.833 94.3333,223.167 70,257.5C 68.9054,256.307 68.072,254.973 67.5,253.5C 92.4874,217.537 117.487,181.537 142.5,145.5C 142.833,145.5 143.167,145.5 143.5,145.5C 148.126,152.126 153.126,158.46 158.5,164.5C 177.763,188.94 197.263,213.273 217,237.5C 219.664,233.343 222.497,229.343 225.5,225.5C 230.167,218.167 234.833,210.833 239.5,203.5C 240.338,203.158 240.672,202.492 240.5,201.5C 261.858,170.796 282.858,139.796 303.5,108.5 Z"/></g>
<g><path style="opacity:1" fill="#c2c4c6" d="M 323.5,141.5 C 311.656,166.528 300.322,191.862 289.5,217.5C 288.814,218.292 288.481,217.792 288.5,216C 295.39,183.045 302.724,150.212 310.5,117.5C 315.877,124.92 320.21,132.92 323.5,141.5 Z"/></g>
<g><path style="opacity:1" fill="#f3f3f7" d="M 35.5,122.5 C 41.8285,126.003 48.4951,128.836 55.5,131C 53.7976,133.235 52.7976,135.735 52.5,138.5C 45.8333,136.167 39.1667,133.833 32.5,131.5C 33.2134,128.406 34.2134,125.406 35.5,122.5 Z"/></g>
<g><path style="opacity:1" fill="#f1f1f5" d="M 353.5,124.5 C 355.33,126.826 356.663,129.493 357.5,132.5C 351.842,134.995 346.175,137.495 340.5,140C 339.365,140.749 338.365,140.583 337.5,139.5C 336.039,137.189 335.706,134.856 336.5,132.5C 342.646,130.577 348.313,127.91 353.5,124.5 Z"/></g>
<g><path style="opacity:1" fill="#f1f1f5" d="M 357.5,139.5 C 359.411,139.574 360.578,140.574 361,142.5C 362.534,148.159 363.534,153.826 364,159.5C 358.694,162.952 352.861,164.452 346.5,164C 345.299,163.097 344.465,161.931 344,160.5C 342.372,155.351 340.872,150.184 339.5,145C 345.612,143.145 351.612,141.311 357.5,139.5 Z"/></g>
<g><path style="opacity:1" fill="#ebebf1" d="M 29.5,138.5 C 30.8399,141.158 32.6733,143.492 35,145.5C 40.0173,143.83 45.0173,142.164 50,140.5C 50.0475,143.878 49.5475,147.211 48.5,150.5C 45.1212,150.888 41.7879,151.555 38.5,152.5C 40.4255,155.172 43.0921,156.172 46.5,155.5C 45.7976,158.578 44.7976,161.578 43.5,164.5C 36.833,162.5 30.1664,160.5 23.5,158.5C 24.1965,155.71 25.1965,153.043 26.5,150.5C 28.7073,152.31 31.0407,152.643 33.5,151.5C 32.1971,149.032 30.6971,146.699 29,144.5C 28.3224,142.402 28.4891,140.402 29.5,138.5 Z"/></g>
<g><path style="opacity:1" fill="#080b53" d="M 323.5,141.5 C 324.697,145.922 326.197,150.256 328,154.5C 328.995,157.126 329.328,159.793 329,162.5C 315.97,181.014 302.804,199.348 289.5,217.5C 300.322,191.862 311.656,166.528 323.5,141.5 Z"/></g>
<g><path style="opacity:1" fill="#111056" d="M 355.5,148.5 C 356.833,148.5 358.167,148.5 359.5,148.5C 359.785,150.288 359.452,151.955 358.5,153.5C 354.605,155.483 350.605,156.15 346.5,155.5C 345.572,154.232 345.405,152.899 346,151.5C 349.245,150.428 352.411,149.428 355.5,148.5 Z"/></g>
<g><path style="opacity:1" fill="#c3c5c6" d="M 143.5,159.5 C 146.283,177.534 149.283,195.534 152.5,213.5C 138.531,230.311 124.697,247.311 111,264.5C 121.061,229.252 131.895,194.252 143.5,159.5 Z"/></g>
<g><path style="opacity:1" fill="#050952" d="M 143.5,159.5 C 144.5,160.167 145.5,160.833 146.5,161.5C 162.15,181.813 178.15,201.813 194.5,221.5C 195.562,222.575 195.562,223.575 194.5,224.5C 180.566,220.517 166.566,216.85 152.5,213.5C 149.283,195.534 146.283,177.534 143.5,159.5 Z"/></g>
<g><path style="opacity:1" fill="#f2f2f6" d="M 22.5,166.5 C 23.8734,166.343 25.2068,166.51 26.5,167C 25.2052,170.786 25.2052,174.62 26.5,178.5C 27.086,178.291 27.586,177.957 28,177.5C 26.9881,166.457 31.4881,163.457 41.5,168.5C 42.5274,174.822 42.5274,181.155 41.5,187.5C 40.1266,187.657 38.7932,187.49 37.5,187C 38.4601,183.27 38.7935,179.437 38.5,175.5C 37.5,175.5 36.5,175.5 35.5,175.5C 37.3211,185.509 33.3211,189.009 23.5,186C 23,185.5 22.5,185 22,184.5C 21.5012,178.484 21.6679,172.484 22.5,166.5 Z"/></g>
<g><path style="opacity:1" fill="#f0f0f5" d="M 363.5,167.5 C 364.822,167.33 365.989,167.663 367,168.5C 367.531,174.171 368.031,179.838 368.5,185.5C 367.5,185.5 366.5,185.5 365.5,185.5C 364.841,182.545 364.508,179.545 364.5,176.5C 362.833,176.5 361.167,176.5 359.5,176.5C 359.26,179.579 359.593,182.579 360.5,185.5C 359.311,186.429 357.978,186.762 356.5,186.5C 355.841,183.545 355.508,180.545 355.5,177.5C 353.833,177.5 352.167,177.5 350.5,177.5C 350.249,180.909 350.583,184.242 351.5,187.5C 350.311,188.429 348.978,188.762 347.5,188.5C 347.451,182.223 346.784,176.056 345.5,170C 351.721,169.729 357.721,168.896 363.5,167.5 Z"/></g>
<g><path style="opacity:1" fill="#e5e5ed" d="M 147.5,160.5 C 163.85,180.187 179.85,200.187 195.5,220.5C 194.833,220.5 194.5,220.833 194.5,221.5C 178.15,201.813 162.15,181.813 146.5,161.5C 146.5,160.833 146.833,160.5 147.5,160.5 Z"/></g>
<g><path style="opacity:1" fill="#f2f2f6" d="M 337.5,253.5 C 341.888,252.943 345.055,254.61 347,258.5C 354.84,257.674 357.507,261.008 355,268.5C 352.961,272.745 350.794,276.912 348.5,281C 343.195,282.432 339.695,280.599 338,275.5C 334.571,277.013 331.571,276.347 329,273.5C 330.417,266.321 333.25,259.654 337.5,253.5 Z"/></g>
<g><path style="opacity:1" fill="#f4f4f7" d="M 47.5,258.5 C 51.6535,259.971 54.9868,262.637 57.5,266.5C 50.9164,270.375 44.4164,274.375 38,278.5C 36.3525,275.222 34.5192,272.055 32.5,269C 37.7318,267.384 42.7318,265.218 47.5,262.5C 46.1931,261.135 46.1931,259.802 47.5,258.5 Z"/></g>
<g><path style="opacity:1" fill="#1b175c" d="M 337.5,261.5 C 342.327,263.294 342.661,265.628 338.5,268.5C 336.893,268.363 335.559,267.696 334.5,266.5C 335.26,264.64 336.26,262.973 337.5,261.5 Z"/></g>
<g><path style="opacity:1" fill="#141459" d="M 345.5,265.5 C 351.192,267.015 351.858,269.681 347.5,273.5C 342.957,271.863 342.29,269.197 345.5,265.5 Z"/></g>
<g><path style="opacity:1" fill="#efeff4" d="M 323.5,279.5 C 325.017,279.511 326.184,280.177 327,281.5C 328.459,288.751 331.292,295.417 335.5,301.5C 334.2,304.432 332.2,306.766 329.5,308.5C 326.179,302.364 323.346,296.031 321,289.5C 318.333,292.833 315.667,296.167 313,299.5C 311.978,298.646 311.145,297.646 310.5,296.5C 315.085,290.983 319.418,285.317 323.5,279.5 Z"/></g>
<g><path style="opacity:1" fill="#f3f3f7" d="M 60.5,280.5 C 62.4672,280.261 64.3005,280.594 66,281.5C 69.8426,286.154 73.0093,291.154 75.5,296.5C 75.2438,299.271 73.9104,301.438 71.5,303C 68.1889,305.567 64.6889,307.734 61,309.5C 58.4972,309.01 56.4972,307.677 55,305.5C 52.1517,301.323 49.3183,297.156 46.5,293C 46.9304,291.566 47.7638,290.399 49,289.5C 51.0836,293.336 53.417,297.003 56,300.5C 57.8803,301.93 59.3803,301.596 60.5,299.5C 57.7357,296.077 55.4024,292.41 53.5,288.5C 55.138,285.197 57.4714,282.531 60.5,280.5 Z"/></g>
<g><path style="opacity:1" fill="#17155a" d="M 64.5,288.5 C 71.2459,291.385 71.0792,294.052 64,296.5C 59.2676,293.606 59.4343,290.939 64.5,288.5 Z"/></g>
<g><path style="opacity:1" fill="#f0f0f5" d="M 106.5,323.5 C 110.189,325.097 113.689,327.097 117,329.5C 116.594,335.472 116.594,341.472 117,347.5C 119.699,342.813 122.366,338.147 125,333.5C 126.255,334.211 127.421,335.044 128.5,336C 124.36,342.452 120.36,348.952 116.5,355.5C 113.749,353.707 110.916,352.041 108,350.5C 107.516,344.129 107.516,337.795 108,331.5C 104.912,336.01 102.078,340.676 99.5,345.5C 97.9984,344.917 96.6651,344.084 95.5,343C 100.334,337.167 104,330.667 106.5,323.5 Z"/></g>
<g><path style="opacity:1" fill="#f2f2f6" d="M 276.5,325.5 C 279.505,325.253 282.005,326.253 284,328.5C 286.409,332.734 288.576,337.067 290.5,341.5C 290.136,344.032 288.803,345.865 286.5,347C 281.5,349.833 276.5,352.667 271.5,355.5C 268.131,348.591 264.131,342.091 259.5,336C 265.231,332.475 270.897,328.975 276.5,325.5 Z"/></g>
<g><path style="opacity:1" fill="#131258" d="M 273.5,331.5 C 274.496,331.414 275.329,331.748 276,332.5C 277.663,336.496 279.829,340.163 282.5,343.5C 281.421,345.543 279.754,346.876 277.5,347.5C 274.95,343.451 272.617,339.284 270.5,335C 271.071,333.401 272.071,332.234 273.5,331.5 Z"/></g>
<g><path style="opacity:1" fill="#ecedf2" d="M 251.5,337.5 C 252.833,337.5 254.167,337.5 255.5,337.5C 257.295,344.884 259.295,352.218 261.5,359.5C 257.781,360.47 254.114,361.304 250.5,362C 246.333,357.833 242.167,353.667 238,349.5C 238.825,354.973 240.658,360.139 243.5,365C 242.128,365.402 240.795,365.902 239.5,366.5C 236.449,359.684 233.782,352.684 231.5,345.5C 235.145,343.006 239.145,341.839 243.5,342C 248.034,346.199 252.201,350.699 256,355.5C 254.604,349.979 252.771,344.479 250.5,339C 251.056,338.617 251.389,338.117 251.5,337.5 Z"/></g>
<g><path style="opacity:1" fill="#f3f3f7" d="M 134.5,338.5 C 141.03,340.175 147.53,342.175 154,344.5C 154.638,345.609 155.138,346.775 155.5,348C 153.935,354.04 151.601,359.707 148.5,365C 141.648,364.607 135.148,362.774 129,359.5C 127.63,351.758 129.464,344.758 134.5,338.5 Z"/></g>
<g><path style="opacity:1" fill="#101056" d="M 139.5,344.5 C 142.641,343.908 144.974,344.908 146.5,347.5C 145.434,351.197 144.268,354.864 143,358.5C 140.069,360.047 137.569,359.547 135.5,357C 136.94,352.846 138.274,348.68 139.5,344.5 Z"/></g>
<g><path style="opacity:1" fill="#f7f7fa" d="M 223.5,369.5 C 222.5,369.5 221.5,369.5 220.5,369.5C 220.768,367.901 220.434,366.568 219.5,365.5C 218.777,360.16 217.943,354.827 217,349.5C 216.5,349 216,348.5 215.5,348C 218.726,346.801 222.059,346.301 225.5,346.5C 226.092,353.65 227.426,360.65 229.5,367.5C 227.696,368.768 225.696,369.435 223.5,369.5 Z"/></g>
<g><path style="opacity:1" fill="#5d5f8f" d="M 165.5,347.5 C 164.5,347.5 163.5,347.5 162.5,347.5C 162.795,349.735 162.461,351.735 161.5,353.5C 161.5,351.167 161.5,348.833 161.5,346.5C 163.099,346.232 164.432,346.566 165.5,347.5 Z"/></g>
<g><path style="opacity:1" fill="#f4f4f7" d="M 165.5,347.5 C 171.517,348.136 177.517,348.969 183.5,350C 184,350.5 184.5,351 185,351.5C 185.667,354.833 185.667,358.167 185,361.5C 183.989,362.337 182.822,362.67 181.5,362.5C 182.885,365.659 183.885,368.992 184.5,372.5C 181.482,372.665 178.482,372.498 175.5,372C 174.427,368.88 173.427,365.713 172.5,362.5C 170.948,361.202 169.948,361.535 169.5,363.5C 169.083,366.159 168.083,368.492 166.5,370.5C 164.473,370.662 162.473,370.495 160.5,370C 160.043,369.586 159.709,369.086 159.5,368.5C 160.363,363.537 161.03,358.537 161.5,353.5C 162.461,351.735 162.795,349.735 162.5,347.5C 163.5,347.5 164.5,347.5 165.5,347.5 Z"/></g>
<g><path style="opacity:1" fill="#fafafb" d="M 206.5,371.5 C 203.287,371.81 200.287,371.477 197.5,370.5C 197.687,364.788 197.354,359.121 196.5,353.5C 194.143,353.663 191.81,353.497 189.5,353C 190.337,351.989 190.67,350.822 190.5,349.5C 197.226,349.795 203.892,349.462 210.5,348.5C 211.262,349.628 211.929,350.795 212.5,352C 210.19,352.497 207.857,352.663 205.5,352.5C 205.249,358.892 205.582,365.225 206.5,371.5 Z"/></g>
<g><path style="opacity:1" fill="#18145a" d="M 171.5,352.5 C 173.5,352.5 175.5,352.5 177.5,352.5C 177.5,354.167 177.5,355.833 177.5,357.5C 175.167,357.5 172.833,357.5 170.5,357.5C 170.366,355.708 170.699,354.042 171.5,352.5 Z"/></g>
<g><path style="opacity:1" fill="#8688ac" d="M 219.5,365.5 C 220.434,366.568 220.768,367.901 220.5,369.5C 221.5,369.5 222.5,369.5 223.5,369.5C 222.432,370.434 221.099,370.768 219.5,370.5C 219.5,368.833 219.5,367.167 219.5,365.5 Z"/></g>
<g><path style="opacity:1" fill="#5f6190" d="M 169.5,363.5 C 169.5,366.167 169.5,368.833 169.5,371.5C 168.209,371.737 167.209,371.404 166.5,370.5C 168.083,368.492 169.083,366.159 169.5,363.5 Z"/></g>
<g><path style="opacity:1" fill="#787aa2" d="M 197.5,370.5 C 200.287,371.477 203.287,371.81 206.5,371.5C 203.313,372.806 199.98,372.806 196.5,371.5C 196.624,370.893 196.957,370.56 197.5,370.5 Z"/></g>
</svg>
